<?xml version="1.0" encoding="UTF-8" standalone="no"?>
<!-- Created with Inkscape (http://www.inkscape.org/) -->

<svg
   width="52.897896mm"
   height="52.879551mm"
   viewBox="0 0 52.897896 52.879553"
   version="1.1"
   id="svg1"
   xml:space="preserve"
   inkscape:version="1.3.2 (091e20ef0f, 2023-11-25)"
   sodipodi:docname="bootstrap.svg"
   xmlns:inkscape="http://www.inkscape.org/namespaces/inkscape"
   xmlns:sodipodi="http://sodipodi.sourceforge.net/DTD/sodipodi-0.dtd"
   xmlns="http://www.w3.org/2000/svg"
   xmlns:svg="http://www.w3.org/2000/svg"><sodipodi:namedview
     id="namedview1"
     pagecolor="#505050"
     bordercolor="#eeeeee"
     borderopacity="1"
     inkscape:showpageshadow="0"
     inkscape:pageopacity="0"
     inkscape:pagecheckerboard="0"
     inkscape:deskcolor="#505050"
     inkscape:document-units="mm"
     inkscape:zoom="1.0595326"
     inkscape:cx="259.0765"
     inkscape:cy="266.15509"
     inkscape:window-width="1920"
     inkscape:window-height="1037"
     inkscape:window-x="0"
     inkscape:window-y="0"
     inkscape:window-maximized="1"
     inkscape:current-layer="layer1" /><defs
     id="defs1" /><g
     inkscape:label="Layer 1"
     inkscape:groupmode="layer"
     id="layer1"
     transform="translate(398.37096,147.49041)"><path
       style="fill:#1e877d;fill-opacity:0.694118"
       d="m -391.26961,-94.709055 c -2.65526,-0.537082 -4.99698,-2.322141 -6.18365,-4.713723 -0.41917,-0.844782 -0.7187,-1.745352 -0.84019,-2.526152 -0.0711,-0.457 -0.0893,-5.47655 -0.0707,-19.46733 l 0.0252,-18.85156 0.23018,-0.74414 c 0.4933,-1.59473 1.16566,-2.73526 2.28014,-3.86779 1.10958,-1.12756 2.3213,-1.85088 3.9389,-2.35125 l 0.74414,-0.23018 18.8929,-0.0236 c 13.26016,-0.0166 19.04923,0.003 19.41723,0.0658 0.72906,0.12426 1.76778,0.46245 2.44251,0.79525 2.55312,1.2593 4.41875,3.75965 4.84364,6.49153 0.0696,0.44742 0.088,5.60097 0.0695,19.46015 l -0.0252,18.85155 -0.18402,0.62876 c -0.94049,3.213433 -3.16696,5.440385 -6.3787,6.380091 l -0.63064,0.184514 -19.01692,0.01343 c -15.42694,0.01089 -19.11839,-0.0071 -19.55437,-0.09528 z m 39.06739,-0.686913 c 0.87646,-0.251741 2.18643,-0.895815 2.85254,-1.402506 1.48549,-1.129985 2.5794,-2.755277 3.07409,-4.567336 l 0.19186,-0.7028 v -18.97558 -18.97559 l -0.18966,-0.7028 c -0.24054,-0.89139 -0.8747,-2.19959 -1.40284,-2.89388 -1.12998,-1.48549 -2.75527,-2.57941 -4.56733,-3.07409 l -0.7028,-0.19186 h -18.97559 -18.97559 l -0.7028,0.19186 c -2.91023,0.79448 -5.17349,3.05774 -5.96797,5.96797 l -0.19186,0.7028 v 18.97559 18.97558 l 0.19246,0.7028 c 0.88026,3.21453 3.46658,5.55298 6.7942,6.143051 0.11368,0.02016 8.68991,0.03218 19.05827,0.02672 l 18.85156,-0.0099 z m -31.87403,-25.155372 v -15.46482 l 8.61963,0.0299 c 8.36406,0.029 8.64169,0.035 9.36377,0.20097 3.48823,0.80199 5.47054,2.56105 6.07777,5.39329 0.7909,3.6889 -0.55743,6.8285 -3.58598,8.34995 l -0.61143,0.30717 0.5481,0.14232 c 0.30146,0.0783 0.92713,0.32872 1.39038,0.55655 1.78224,0.8765 2.96581,2.41192 3.56289,4.62205 0.19473,0.72081 0.21273,0.92843 0.21862,2.52181 0.006,1.6465 -0.005,1.77779 -0.21782,2.53808 -0.12334,0.44097 -0.3703,1.09224 -0.5488,1.44726 -1.36416,2.71318 -4.42629,4.37307 -8.73542,4.73522 -0.57246,0.0481 -4.18387,0.0838 -8.53695,0.0842 l -7.54476,8.5e-4 z m 16.81748,10.76901 c 2.15496,-0.60045 3.35413,-2.26195 3.35413,-4.64728 0,-2.33683 -1.11937,-3.88629 -3.26593,-4.52077 -0.44483,-0.13148 -1.02686,-0.1484 -5.9296,-0.17231 l -5.43636,-0.0265 v 4.80387 4.80387 l 5.31233,-0.0294 c 5.17413,-0.0287 5.32933,-0.0342 5.96543,-0.21143 z m -1.33217,-13.4507 c 0.82197,-0.17417 1.58861,-0.58348 2.17231,-1.15979 0.82237,-0.81196 1.10871,-1.60179 1.11028,-3.06255 0.002,-2.31581 -0.80814,-3.43985 -2.83036,-3.92465 -0.64007,-0.15345 -0.98571,-0.1637 -5.54024,-0.16424 l -4.85758,-5.8e-4 v 4.21679 4.2168 l 4.69222,-0.001 c 3.7616,-10e-4 4.80351,-0.025 5.25337,-0.12035 z"
       id="path8" /></g></svg>
