<?xml version="1.0" encoding="UTF-8" standalone="no"?>
<!-- Created with Inkscape (http://www.inkscape.org/) -->

<svg
   width="37.79459mm"
   height="52.916668mm"
   viewBox="0 0 37.79459 52.91667"
   version="1.1"
   id="svg1"
   xml:space="preserve"
   inkscape:version="1.3.2 (091e20ef0f, 2023-11-25)"
   sodipodi:docname="css3.svg"
   xmlns:inkscape="http://www.inkscape.org/namespaces/inkscape"
   xmlns:sodipodi="http://sodipodi.sourceforge.net/DTD/sodipodi-0.dtd"
   xmlns="http://www.w3.org/2000/svg"
   xmlns:svg="http://www.w3.org/2000/svg"><sodipodi:namedview
     id="namedview1"
     pagecolor="#505050"
     bordercolor="#eeeeee"
     borderopacity="1"
     inkscape:showpageshadow="0"
     inkscape:pageopacity="0"
     inkscape:pagecheckerboard="0"
     inkscape:deskcolor="#505050"
     inkscape:document-units="mm"
     inkscape:zoom="1.6930717"
     inkscape:cx="-93.616827"
     inkscape:cy="43.707541"
     inkscape:window-width="1920"
     inkscape:window-height="1037"
     inkscape:window-x="0"
     inkscape:window-y="0"
     inkscape:window-maximized="1"
     inkscape:current-layer="layer1" /><defs
     id="defs1" /><g
     inkscape:label="Layer 1"
     inkscape:groupmode="layer"
     id="layer1"
     transform="translate(263.3545,123.41689)"><path
       style="fill:#1e877d;fill-opacity:0.694118;stroke-width:2.0837"
       d="m -252.33308,-72.533181 c -4.12192,-1.112885 -7.50248,-2.027673 -7.51236,-2.03282 -0.0188,-0.01042 -0.48196,-4.9464 -1.32598,-14.118138 -0.64335,-6.990788 -1.30619,-14.155461 -1.81118,-19.577031 -0.23242,-2.49509 -0.39822,-4.59999 -0.36844,-4.67756 0.0454,-0.11836 3.07928,-0.14107 18.92262,-0.14107 h 18.86851 v 0.35552 c 0,0.19545 -0.18358,2.32369 -0.40812,4.72924 -0.40661,4.35763 -0.9196,9.900286 -1.81599,19.620977 -0.92566,10.03833 -1.28058,13.772806 -1.31117,13.796372 -0.0298,0.02292 -0.74382,0.216393 -6.69848,1.815303 -1.44978,0.389292 -3.94321,1.059647 -5.54093,1.489682 -1.59772,0.430035 -3.03975,0.777626 -3.20451,0.772425 -0.16482,-0.0052 -3.67205,-0.920012 -7.79397,-2.03292 z m 12.55939,-7.47733 c 2.55856,-0.744362 4.69994,-1.413877 4.75861,-1.487827 0.0588,-0.07397 0.23707,-1.639605 0.39641,-3.479224 0.1594,-1.839641 0.42455,-4.879849 0.58931,-6.756037 0.16482,-1.876189 0.30037,-3.515918 0.30133,-3.643837 l 0.002,-0.232583 h -5.36921 c -3.05165,0 -5.39392,-0.04001 -5.42644,-0.09252 -0.0315,-0.05084 0.23325,-0.209891 0.58829,-0.35325 0.35502,-0.143359 2.87782,-1.216592 5.6062,-2.384946 4.14418,-1.774645 4.97214,-2.163155 5.03019,-2.360255 0.0381,-0.12981 0.14565,-1.05 0.23884,-2.04494 0.0931,-0.99495 0.19128,-1.91366 0.21789,-2.04158 l 0.0486,-0.23258 h -11.77645 -11.77648 l 0.0517,0.38763 c 0.0283,0.21321 0.15274,1.2017 0.27617,2.19664 l 0.22446,1.80899 5.968,0.0517 c 3.41711,0.0296 5.97071,0.0915 5.97438,0.14461 0.004,0.0658 -10.46809,4.511132 -11.41422,4.845004 -0.0488,0.01667 -0.0146,0.936688 0.0779,2.043323 0.0915,1.106614 0.16628,2.093456 0.16607,2.192953 -2.9e-4,0.170655 0.45462,0.180866 8.10824,0.180866 4.45971,0 8.13282,0.03938 8.16249,0.08731 0.0536,0.08668 -0.20545,4.952236 -0.30672,5.762506 -0.0498,0.397862 -0.0786,0.429014 -0.48832,0.528114 -0.2395,0.05793 -1.45884,0.395008 -2.70964,0.749071 l -2.27416,0.643719 -2.5326,-0.64276 c -1.39293,-0.353542 -2.56477,-0.671536 -2.60409,-0.706688 -0.0529,-0.0473 -0.39367,-3.224012 -0.39367,-3.669363 0,-0.03542 -1.04548,-0.06418 -2.32329,-0.06418 h -2.32327 l 0.0467,0.284259 c 0.0256,0.156278 0.17128,1.754563 0.32381,3.551571 l 0.27725,3.267311 4.71295,1.400354 c 2.59213,0.770199 4.75937,1.404812 4.81608,1.410251 0.0567,0.0063 2.19652,-0.599128 4.7551,-1.34349 z m -15.97064,-39.788399 v -3.61798 h 3.00085 3.00086 l -0.029,1.31798 -0.029,1.31799 -1.62811,0.0285 -1.6281,0.0285 v 1.03108 1.0311 h 1.65394 1.65394 v 1.24045 1.24045 h -2.99776 -2.99776 z m 8.33861,3.54909 c -0.0379,-0.0379 -0.069,-0.59611 -0.069,-1.24045 v -1.17154 h 1.10947 1.10949 l -1.10949,-1.11293 -1.10947,-1.11293 v -1.26462 -1.2646 h 2.99776 2.99776 v 1.34382 1.34383 l -1.05954,0.004 -1.05956,0.004 1.05956,1.02937 1.05954,1.02939 v 1.2412 1.2412 h -2.92885 c -1.61085,0 -2.95986,-0.031 -2.99776,-0.069 z m 8.20079,-1.17154 v -1.24045 h 1.10947 1.10949 l -1.10949,-1.11293 -1.10947,-1.11293 v -1.26462 -1.2646 h 2.99777 2.99776 v 1.34382 1.34383 h -1.05771 -1.05771 l 1.05771,1.06131 1.05771,1.06133 v 1.21285 1.21284 h -2.99776 -2.99777 z"
       id="path6" /></g></svg>
