<?xml version="1.0" encoding="UTF-8" standalone="no"?>
<!-- Created with Inkscape (http://www.inkscape.org/) -->

<svg
   width="37.365108mm"
   height="52.916679mm"
   viewBox="0 0 37.365108 52.916681"
   version="1.1"
   id="svg1"
   xml:space="preserve"
   inkscape:version="1.3.2 (091e20ef0f, 2023-11-25)"
   sodipodi:docname="html5.svg"
   xmlns:inkscape="http://www.inkscape.org/namespaces/inkscape"
   xmlns:sodipodi="http://sodipodi.sourceforge.net/DTD/sodipodi-0.dtd"
   xmlns="http://www.w3.org/2000/svg"
   xmlns:svg="http://www.w3.org/2000/svg"><sodipodi:namedview
     id="namedview1"
     pagecolor="#505050"
     bordercolor="#eeeeee"
     borderopacity="1"
     inkscape:showpageshadow="0"
     inkscape:pageopacity="0"
     inkscape:pagecheckerboard="0"
     inkscape:deskcolor="#505050"
     inkscape:document-units="mm"
     inkscape:zoom="1.6930717"
     inkscape:cx="264.90313"
     inkscape:cy="125.80684"
     inkscape:window-width="1920"
     inkscape:window-height="1037"
     inkscape:window-x="0"
     inkscape:window-y="0"
     inkscape:window-maximized="1"
     inkscape:current-layer="layer1" /><defs
     id="defs1" /><g
     inkscape:label="Layer 1"
     inkscape:groupmode="layer"
     id="layer1"
     transform="translate(358.18425,145.06684)"><path
       style="fill:#1e877d;fill-opacity:0.694118;stroke-width:1.83704"
       d="m -347.40002,-94.225509 c -4.05168,-1.13191 -7.38308,-2.06893 -7.40308,-2.08225 -0.0501,-0.0334 -3.38115,-37.399351 -3.38115,-37.928641 v -0.42588 h 18.68255 18.68256 v 0.42516 c 0,0.5123 -3.33557,37.901911 -3.3838,37.930111 -0.26486,0.15486 -15.19581,4.16924 -15.46095,4.15682 -0.20319,-0.009 -3.68444,-0.94341 -7.73613,-2.07532 z m 12.91071,-7.237961 4.63266,-1.26631 0.55444,-6.587 c 0.30493,-3.62284 0.57441,-6.91335 0.59884,-7.31223 l 0.0445,-0.72523 -8.49715,-0.0342 -8.49716,-0.0342 -0.17966,-1.59484 c -0.0988,-0.87717 -0.21518,-1.91952 -0.25866,-2.31634 l -0.079,-0.72148 h 9.03034 c 4.96667,0 9.03322,-0.0165 9.03673,-0.0381 0.09,-0.53368 0.39159,-4.78023 0.34524,-4.8605 -0.0362,-0.0626 -5.3549,-0.11389 -11.81938,-0.11389 -6.46448,0 -11.78173,0.0513 -11.81608,0.11389 -0.0343,0.0626 0.23255,3.25805 0.59313,7.1009 0.36059,3.84283 0.65808,7.0724 0.66107,7.17682 0.004,0.14953 1.74347,0.18987 8.1746,0.18987 h 8.16914 l -0.25396,2.89437 c -0.13962,1.59191 -0.28594,2.92637 -0.32501,2.96545 -0.12694,0.12694 -4.79893,1.43094 -5.12694,1.43094 -0.52038,0 -5.0589,-1.34838 -5.17593,-1.53775 -0.0593,-0.0959 -0.1545,-0.76314 -0.2118,-1.48275 -0.17562,-2.20794 0.11463,-1.9919 -2.67605,-1.9919 h -2.41088 l 0.0766,0.64553 c 0.0421,0.35505 0.21131,2.00646 0.37589,3.66979 0.1646,1.66333 0.33939,3.06451 0.38848,3.11374 0.14623,0.14678 9.22115,2.57616 9.6336,2.57901 0.20886,10e-4 2.46444,-0.56721 5.01239,-1.26367 z m -20.2774,-40.03388 v -3.49349 h 1.17714 1.17715 v 1.13917 1.13919 h 1.13919 1.13918 v -1.12718 -1.12718 l 1.13954,-0.05 1.13953,-0.05 -3.7e-4,3.53147 -3.4e-4,3.53145 h -1.13919 -1.13917 v -1.21512 -1.21513 h -1.13918 -1.13919 v 1.21513 1.21512 h -1.17715 -1.17714 z m 10.10073,1.06322 v -2.43024 h -1.06325 -1.06322 v -1.05749 -1.05748 l 3.26578,-0.0437 3.2658,-0.0437 1.3e-4,1.13918 1.3e-4,1.13919 h -1.02553 -1.02553 l -0.0419,2.39226 -0.0419,2.39229 h -1.13531 -1.13533 z m 5.61994,-1.06322 v -3.49349 h 1.20885 1.20883 l 0.72778,1.20973 c 0.40027,0.66536 0.76195,1.20909 0.8037,1.20828 0.0417,-7.1e-4 0.38608,-0.52811 0.76513,-1.17178 l 0.68917,-1.17029 1.24773,-0.0759 1.24774,-0.0759 -3e-4,3.53147 -3.1e-4,3.53145 h -1.13435 -1.13435 l -0.0428,-1.77454 -0.0428,-1.77456 -0.81005,1.27346 -0.81002,1.27346 -0.78482,-1.23778 c -0.43165,-0.68079 -0.84023,-1.24132 -0.90794,-1.24566 -0.0678,-0.004 -0.10195,0.7783 -0.0759,1.73919 l 0.0472,1.74704 -1.10121,-3.1e-4 -1.10122,-3e-4 z m 9.26534,0 v -3.49349 h 1.13919 1.13918 v 2.3543 2.35431 h 1.67079 1.6708 v 1.13917 1.13919 h -2.80997 -2.80999 z"
       id="path5"
       sodipodi:nodetypes="scscccsccsccccccccccsccssccsccssccsccccccccccccccccccccccccccccccccccccccccccccccccccccccscccccccccccccccccccccccccccccccc" /></g></svg>
