<?xml version="1.0" encoding="UTF-8" standalone="no"?>
<!-- Created with Inkscape (http://www.inkscape.org/) -->

<svg
   width="52.916672mm"
   height="52.916668mm"
   viewBox="0 0 52.916672 52.916668"
   version="1.1"
   id="svg1"
   xml:space="preserve"
   inkscape:version="1.3.2 (091e20ef0f, 2023-11-25)"
   sodipodi:docname="javascript.svg"
   xmlns:inkscape="http://www.inkscape.org/namespaces/inkscape"
   xmlns:sodipodi="http://sodipodi.sourceforge.net/DTD/sodipodi-0.dtd"
   xmlns="http://www.w3.org/2000/svg"
   xmlns:svg="http://www.w3.org/2000/svg"><sodipodi:namedview
     id="namedview1"
     pagecolor="#505050"
     bordercolor="#eeeeee"
     borderopacity="1"
     inkscape:showpageshadow="0"
     inkscape:pageopacity="0"
     inkscape:pagecheckerboard="0"
     inkscape:deskcolor="#505050"
     inkscape:document-units="mm"
     inkscape:zoom="0.93105638"
     inkscape:cx="185.27342"
     inkscape:cy="249.17933"
     inkscape:window-width="1920"
     inkscape:window-height="1037"
     inkscape:window-x="0"
     inkscape:window-y="0"
     inkscape:window-maximized="1"
     inkscape:current-layer="layer1" /><defs
     id="defs1" /><g
     inkscape:label="Layer 1"
     inkscape:groupmode="layer"
     id="layer1"
     transform="translate(204.05645,-16.675273)"><path
       style="fill:#1e877d;fill-opacity:0.694118"
       d="M -204.05645,43.133607 V 16.675273 h 26.45834 26.45833 v 26.458334 26.458334 h -26.45833 -26.45834 z m 23.12521,22.198208 c 1.39229,-0.252042 2.41846,-0.689056 3.33313,-1.419474 1.12669,-0.899743 1.89292,-2.287126 2.23188,-4.041232 l 0.11375,-0.588617 0.0171,-9.159648 0.0171,-9.159648 h -2.50641 -2.5064 l -0.0145,8.927104 -0.0145,8.927104 -0.11465,0.403797 c -0.3552,1.25098 -1.04014,1.740775 -2.43432,1.740775 -1.29492,0 -2.09513,-0.549643 -2.94514,-2.02292 -0.19304,-0.334592 -0.31691,-0.499013 -0.3632,-0.482109 -0.0629,0.02298 -3.98499,2.38788 -4.03122,2.430721 -0.0105,0.0097 0.0673,0.175728 0.17271,0.36895 0.85083,1.558801 2.08809,2.769764 3.49266,3.418399 0.77076,0.355941 1.7,0.613012 2.63235,0.728228 0.58198,0.07192 2.36941,0.02819 2.91972,-0.07143 z m 18.75854,0.07404 c 3.31324,-0.364177 5.64973,-1.962146 6.55558,-4.483482 0.27411,-0.762949 0.36125,-1.342881 0.3629,-2.415029 0.002,-1.096762 -0.078,-1.683459 -0.33572,-2.472664 -0.30723,-0.940739 -0.75434,-1.670029 -1.48906,-2.428863 -1.07878,-1.114184 -2.40696,-1.902468 -5.32624,-3.161164 -2.05251,-0.884971 -2.64996,-1.220165 -3.16353,-1.774888 -0.41834,-0.451852 -0.528,-0.758073 -0.52987,-1.47956 -0.001,-0.5185 0.0116,-0.596643 0.14681,-0.889435 0.17224,-0.372882 0.60313,-0.81234 0.96873,-0.988 0.30121,-0.144719 0.86295,-0.265076 1.24264,-0.26624 0.3812,-0.0012 0.98485,0.116857 1.30593,0.255336 0.60656,0.261598 1.29722,0.926881 1.67642,1.61482 0.0746,0.135405 0.15464,0.246526 0.17778,0.246936 0.0231,4.09e-4 0.91276,-0.559336 1.97693,-1.243878 l 1.93487,-1.244623 -0.12756,-0.215236 c -0.34494,-0.582043 -0.82895,-1.199313 -1.34466,-1.714874 -0.83324,-0.832998 -1.59183,-1.302972 -2.66252,-1.649535 -1.79745,-0.581799 -4.06961,-0.57296 -5.84768,0.02275 -1.03553,0.346933 -1.9664,0.935352 -2.7083,1.71197 -0.51312,0.537133 -0.78743,0.935757 -1.11093,1.614431 -0.54964,1.153106 -0.73257,2.502357 -0.53923,3.977244 0.23439,1.788038 0.98836,3.152367 2.38935,4.323607 0.96644,0.807952 1.97493,1.361937 4.32863,2.377821 0.73897,0.318949 1.59938,0.707944 1.91202,0.864433 1.38235,0.691912 1.95037,1.294141 2.09405,2.220137 0.19373,1.24866 -0.59963,2.256041 -2.09405,2.658932 -0.34456,0.09289 -0.5554,0.111487 -1.26607,0.111648 -0.76038,1.73e-4 -0.90859,-0.01472 -1.36942,-0.137584 -1.29651,-0.345673 -2.31868,-1.120819 -3.1941,-2.422208 -0.14752,-0.21931 -0.28755,-0.399532 -0.31116,-0.400493 -0.0236,-9.6e-4 -0.94739,0.523414 -2.05283,1.165276 l -2.00989,1.167023 0.12569,0.248047 c 0.55031,1.085977 1.78747,2.452156 2.86892,3.168109 1.32183,0.875092 2.98224,1.457359 4.6535,1.631877 0.61328,0.06404 2.20774,0.06829 2.76207,0.0074 z"
       id="path3" /></g></svg>
