<?xml version="1.0" encoding="UTF-8" standalone="no"?>
<!-- Created with Inkscape (http://www.inkscape.org/) -->

<svg
   width="52.700657mm"
   height="63.768116mm"
   viewBox="0 0 52.700657 63.76812"
   version="1.1"
   id="svg1"
   xml:space="preserve"
   inkscape:version="1.3.2 (091e20ef0f, 2023-11-25)"
   sodipodi:docname="linux.svg"
   xmlns:inkscape="http://www.inkscape.org/namespaces/inkscape"
   xmlns:sodipodi="http://sodipodi.sourceforge.net/DTD/sodipodi-0.dtd"
   xmlns="http://www.w3.org/2000/svg"
   xmlns:svg="http://www.w3.org/2000/svg"><sodipodi:namedview
     id="namedview1"
     pagecolor="#505050"
     bordercolor="#eeeeee"
     borderopacity="1"
     inkscape:showpageshadow="0"
     inkscape:pageopacity="0"
     inkscape:pagecheckerboard="0"
     inkscape:deskcolor="#505050"
     inkscape:document-units="mm"
     inkscape:zoom="1.3682773"
     inkscape:cx="-50.06295"
     inkscape:cy="114.74282"
     inkscape:window-width="1920"
     inkscape:window-height="1037"
     inkscape:window-x="0"
     inkscape:window-y="0"
     inkscape:window-maximized="1"
     inkscape:current-layer="layer1" /><defs
     id="defs1" /><g
     inkscape:label="Layer 1"
     inkscape:groupmode="layer"
     id="layer1"
     transform="translate(289.49755,120.81662)"><path
       style="fill:#1e877d;fill-opacity:0.694118"
       d="m -252.73982,-57.203617 c -0.90255,-0.258288 -1.44105,-0.582408 -2.15115,-1.294755 -0.49496,-0.496523 -0.74463,-0.82903 -0.9705,-1.292516 -0.16726,-0.343209 -0.32487,-0.689539 -0.35023,-0.769621 -0.0387,-0.122071 -0.15076,-0.145837 -0.69355,-0.147046 -0.7775,-0.0017 -1.79918,-0.102851 -3.4763,-0.344062 -2.04864,-0.294643 -3.33327,-0.237766 -6.06886,0.268696 -0.73488,0.136055 -1.61899,0.270142 -1.96469,0.297971 l -0.62854,0.0506 -0.19582,0.342533 c -0.33619,0.588085 -0.74394,1.026571 -1.32175,1.421369 -1.35316,0.924575 -3.20792,1.161904 -5.41902,0.6934 -0.9973,-0.211316 -1.68294,-0.456315 -3.02762,-1.081869 -1.82505,-0.849026 -2.45381,-1.007921 -5.50468,-1.39111 -1.097,-0.137784 -2.21919,-0.309695 -2.49376,-0.382024 -2.34224,-0.61702 -2.99286,-2.114524 -2.12015,-4.879824 0.30177,-0.95619 0.31579,-1.55737 0.0754,-3.23354 -0.27386,-1.90951 -0.1071,-2.75784 0.71707,-3.64805 0.50507,-0.54554 1.08423,-0.88383 2.1664,-1.2654 1.43111,-0.50462 1.61118,-0.64479 2.71688,-2.11487 0.34419,-0.45761 0.72172,-0.92068 0.83897,-1.02905 l 0.21318,-0.19702 -0.0488,-1.14012 c -0.11683,-2.73169 0.64692,-5.68467 2.34704,-9.0746 1.21531,-2.42327 3.07746,-5.24643 5.09614,-7.72615 1.99828,-2.454661 3.00745,-4.811001 3.35437,-7.832215 0.10389,-0.90475 0.0849,-2.00975 -0.0915,-5.31415 -0.43457,-8.14402 2.32185,-12.02067 8.88036,-12.48937 4.89289,-0.34967 8.0751,1.58164 9.53399,5.78627 0.78429,2.26037 1.06817,4.81345 1.0517,9.45817 -0.007,1.9937 0.0128,2.36685 0.16408,3.08656 0.41029,1.95142 1.42288,3.775234 3.58748,6.461525 2.15398,2.67309 3.20529,4.1093 4.11865,5.62652 3.00389,4.98985 3.84522,9.50067 2.57518,13.8068 -0.0416,0.14089 0.011,0.19982 0.29065,0.32593 0.49723,0.22421 1.1226,0.88132 1.40751,1.47893 0.13614,0.28557 0.40256,1.137 0.59205,1.89206 0.18948,0.75506 0.41249,1.5226 0.49557,1.70564 0.0831,0.18305 0.45561,0.70722 0.82783,1.16484 0.37241,0.45784 0.83509,1.14724 1.02881,1.53296 0.30726,0.61177 0.35582,0.78399 0.38173,1.35382 0.0261,0.57297 0.003,0.70819 -0.19139,1.10477 -0.40825,0.83443 -1.09811,1.31927 -3.79041,2.66397 -2.20111,1.099376 -2.65787,1.425547 -4.24332,3.030167 -1.88222,1.904988 -3.0138,2.63309 -4.80364,3.090855 -0.81961,0.209619 -2.17857,0.211026 -2.90545,0.003 z m 2.57573,-0.888221 c 0.76931,-0.168809 2.10123,-0.81265 2.8453,-1.375411 0.32033,-0.242272 1.16275,-1.026793 1.87205,-1.743378 1.54393,-1.559793 1.87546,-1.787017 4.68895,-3.21377 2.74912,-1.3941 3.18684,-1.80562 3.01927,-2.83855 -0.0805,-0.49639 -0.51207,-1.24747 -1.22829,-2.13781 -0.36812,-0.45761 -0.76405,-1.01686 -0.87983,-1.24278 -0.11578,-0.22592 -0.37375,-1.05812 -0.57327,-1.84934 -0.51534,-2.04367 -0.82099,-2.56048 -1.7777,-3.00592 -0.38154,-0.17765 -0.58067,-0.21222 -1.25683,-0.21821 l -0.80346,-0.007 -0.32401,0.31931 c -0.98072,0.96649 -2.77456,1.80235 -3.86804,1.80235 -1.01534,0 -1.92618,-0.63063 -2.44453,-1.6925 -0.30527,-0.62538 -0.54283,-1.42389 -0.54283,-1.82465 v -0.2373 l -0.3662,0.26299 c -0.36567,0.26261 -0.73942,0.72032 -0.99327,1.2164 -0.42646,0.83341 -0.72635,2.56852 -0.88934,5.14554 -0.10563,1.67012 -0.19623,2.14853 -0.80354,4.24331 -0.64454,2.22318 -0.85611,3.19616 -0.91398,4.203419 -0.0588,1.023979 0.066,1.587249 0.51706,2.332315 0.33588,0.554861 1.1193,1.321656 1.60179,1.567804 0.83366,0.425302 2.01369,0.536208 3.1207,0.293301 z m -22.2818,-0.751784 c 1.88012,-0.450069 2.97442,-1.91516 2.85226,-3.818713 -0.07,-1.089972 -0.81228,-2.387582 -2.804,-4.901482 -1.60865,-2.03039 -1.66688,-2.12001 -3.26359,-5.02281 -0.87835,-1.59683 -1.64991,-2.89588 -1.87986,-3.16504 -0.80131,-0.93794 -1.77065,-1.46128 -2.68313,-1.44859 -0.884,0.0123 -1.43227,0.4123 -2.47939,1.80894 -1.1618,1.54959 -1.54302,1.85051 -3.00506,2.37205 -0.5132,0.18307 -1.04544,0.39095 -1.18274,0.46195 -0.43516,0.22503 -0.92483,0.72955 -1.12556,1.15971 -0.24022,0.51475 -0.26152,1.44099 -0.0603,2.62087 0.0741,0.43473 0.13586,1.16483 0.13716,1.62245 0.002,0.71652 -0.0352,0.94751 -0.26813,1.66404 -0.36642,1.12717 -0.43795,2.18065 -0.18213,2.682107 0.42822,0.839375 1.16501,1.098235 4.08812,1.436303 2.79599,0.323364 3.78881,0.574484 5.57456,1.409991 2.57415,1.204383 4.49411,1.546159 6.28177,1.118224 z m 11.33801,-5.014755 c 1.17815,-0.26158 2.19933,-0.6266 3.3888,-1.21133 1.38875,-0.6827 2.21276,-1.24924 2.30585,-1.58537 0.65516,-2.36566 0.6993,-2.62961 0.89751,-5.36655 0.25333,-3.49817 1.04139,-5.34628 2.60619,-6.11186 0.424,-0.20745 0.4643,-0.25206 0.51653,-0.57187 0.24615,-1.50702 1.2985,-2.11744 3.04274,-1.76495 1.27425,0.25751 3.09101,1.12437 3.92735,1.87392 0.50233,0.45021 0.71915,0.89449 0.72159,1.47862 0.002,0.40704 0.0157,0.43681 0.20474,0.43681 0.17606,0 0.21018,-0.0485 0.2579,-0.36674 0.18629,-1.24225 -0.80042,-2.35223 -3.06096,-3.44337 l -0.81131,-0.39161 0.0417,-0.3328 c 0.1343,-1.07327 0.13699,-2.69608 0.006,-3.4529 -0.4378,-2.52412 -1.96674,-5.42393 -3.93723,-7.46741 -0.46866,-0.48602 -0.6861,-0.62624 -0.6861,-0.44243 0,0.0427 0.29702,0.39818 0.66004,0.79002 1.60967,1.73747 2.79535,4.14879 3.12928,6.36402 0.19574,1.29846 0.1244,2.43557 -0.22345,3.56177 -0.15874,0.51394 -0.177,0.53693 -0.38937,0.49023 -0.12255,-0.0269 -0.45334,-0.0733 -0.73508,-0.10306 l -0.51227,-0.0541 -0.0573,-0.3839 c -0.0903,-0.60452 -0.50493,-2.13741 -0.83356,-3.08156 -0.49635,-1.42595 -0.83069,-2.18205 -2.08159,-4.70735 -1.23779,-2.49886 -2.04659,-4.36481 -2.97529,-6.864189 -0.50727,-1.36521 -1.26972,-3.681384 -1.47079,-4.467994 l -0.0893,-0.34948 -0.34281,0.37191 c -0.42355,0.45949 -1.33163,1.024544 -2.12054,1.319494 -0.32752,0.12245 -1.08796,0.51754 -1.68986,0.87798 -1.39864,0.83756 -1.87478,1.00565 -3.00438,1.06062 -1.40333,0.0683 -2.11827,-0.20133 -3.35627,-1.26574 -0.79183,-0.68079 -1.69965,-1.331664 -1.76552,-1.265804 -0.022,0.022 -0.0916,0.432964 -0.15463,0.913234 -0.35014,2.66756 -1.33,5.453039 -3.82316,10.868229 -0.57732,1.25394 -1.21343,2.73286 -1.41358,3.28649 -0.59569,1.64773 -1.07069,3.7656 -1.17269,5.22861 -0.0263,0.37781 -0.0681,0.81783 -0.0928,0.97781 l -0.0449,0.29089 -0.16825,-0.20768 c -0.29509,-0.36423 -0.8211,-1.49618 -1.00011,-2.15216 -0.23825,-0.87308 -0.25789,-2.89285 -0.0381,-3.92129 0.27338,-1.27937 0.74292,-2.51168 1.66428,-4.36791 0.49965,-1.00664 0.94207,-1.92394 0.98315,-2.03846 l 0.0747,-0.20821 -0.15077,0.19175 c -0.3152,0.40088 -1.64934,2.83212 -2.11937,3.86218 -0.9938,2.17789 -1.42485,3.86074 -1.42312,5.55593 10e-4,1.26552 0.14507,1.9185 0.65036,2.95369 0.61878,1.26766 1.22962,1.88213 3.1185,3.137 2.70208,1.79513 4.2533,3.32398 5.01481,4.94248 0.36339,0.77236 0.41996,1.59381 0.14839,2.1548 -0.22621,0.46729 -0.81948,0.83892 -1.46874,0.92004 l -0.43595,0.0545 0.60569,0.80219 c 0.33313,0.4412 0.7232,0.97583 0.86682,1.18807 0.5362,0.79236 2.66287,1.77967 4.54566,2.11031 0.97617,0.17143 3.25645,0.10976 4.27104,-0.11551 z m -2.39731,-34.593679 c 0.54711,-0.15156 1.06213,-0.40668 1.95444,-0.96816 0.36849,-0.23187 1.05967,-0.581034 1.53596,-0.775924 1.75126,-0.71658 2.70643,-1.68535 2.7102,-2.74878 0.003,-0.87493 -0.5815,-1.35125 -2.52922,-2.06075 -0.57698,-0.21018 -1.38555,-0.57202 -1.79682,-0.8041 -1.31902,-0.7443 -2.07232,-0.98793 -3.05927,-0.98944 -1.09292,-0.002 -2.05345,0.42929 -3.04972,1.3683 -0.25462,0.23999 -0.90092,0.7585 -1.43622,1.15225 -0.5353,0.39375 -1.04075,0.81902 -1.12323,0.94503 -0.19208,0.29347 -0.18901,0.97177 0.006,1.34334 0.24265,0.46217 0.72252,0.93009 1.46769,1.43114 0.39086,0.26281 1.04656,0.767984 1.45712,1.122594 0.41055,0.35461 0.93526,0.73282 1.16601,0.84047 0.78676,0.36703 1.71333,0.41651 2.69698,0.14403 z m -2.70053,-1.719534 c -0.9908,-0.25373 -2.05864,-0.90607 -3.01608,-1.84254 -0.45928,-0.44922 -0.60322,-0.64455 -0.60322,-0.81859 0,-0.31545 0.23874,-0.39573 0.40974,-0.13778 0.50272,0.75838 1.96641,1.8932 2.90111,2.24927 0.73669,0.28064 1.79814,0.3115 2.6642,0.0774 1.37121,-0.37056 3.96091,-1.87756 4.57509,-2.66233 0.2415,-0.30858 0.59897,-0.34748 0.59897,-0.0652 0,0.39862 -1.56004,1.59815 -3.03688,2.3351 -1.37844,0.68784 -2.12454,0.91028 -3.16169,0.9426 -0.56615,0.0176 -1.07389,-0.0121 -1.33124,-0.078 z m -0.42793,-5.17362 c -0.0696,-0.18136 0.10932,-0.35846 0.47187,-0.46709 0.36081,-0.1081 0.74649,-0.0412 0.74649,0.1295 0,0.1467 -0.64526,0.46345 -0.94411,0.46345 -0.12493,0 -0.24754,-0.0563 -0.27425,-0.12586 z m 2.98641,-0.0507 c -0.19449,-0.0894 -0.35361,-0.21658 -0.35361,-0.28262 0,-0.17447 0.38208,-0.24294 0.74648,-0.13377 0.36255,0.10863 0.54146,0.28573 0.47187,0.46709 -0.0653,0.17026 -0.43063,0.14884 -0.86474,-0.0507 z m -5.23855,0.16938 0.31152,-0.25678 -0.20731,-0.24638 c -0.40729,-0.48403 -0.59094,-1.72254 -0.37222,-2.51018 0.23094,-0.83162 0.90248,-1.08828 1.45254,-0.55515 0.33319,0.32295 0.62192,1.11482 0.62192,1.70571 v 0.35898 l 0.59135,-0.26374 0.59135,-0.26374 -0.0451,-0.74882 c -0.0435,-0.72262 -0.21558,-1.37899 -0.5115,-1.95122 -0.20725,-0.40078 -0.78125,-0.99334 -1.13906,-1.17588 -1.44663,-0.73801 -2.94258,1.09828 -2.78475,3.41831 0.0455,0.66818 0.2647,1.52101 0.51614,2.00768 0.13525,0.26179 0.52677,0.738 0.60675,0.738 0.0313,0 0.19703,-0.11556 0.36837,-0.25679 z m 10.95789,-0.26323 c 0.42698,-0.73966 0.60079,-1.41469 0.6052,-2.35046 0.008,-1.76087 -0.8034,-3.26114 -2.08241,-3.8489 -1.19851,-0.55077 -2.59662,-0.0573 -3.40189,1.20075 -0.51901,0.81082 -0.73021,1.69708 -0.70145,2.94349 0.007,0.31799 -0.0578,0.28401 1.3883,0.72425 0.0589,0.0179 0.10859,-0.20444 0.13855,-0.62062 0.0934,-1.29809 0.68798,-2.10462 1.55142,-2.10462 0.86592,0 1.53246,1.31106 1.34016,2.63606 -0.0868,0.59815 -0.14002,0.7453 -0.39343,1.08801 -0.186,0.25154 -0.18963,0.27472 -0.0501,0.32025 0.0827,0.027 0.37507,0.13715 0.64964,0.24479 0.27457,0.10764 0.54526,0.19753 0.60153,0.19976 0.0563,0.002 0.21579,-0.19251 0.35448,-0.43276 z"
       id="path9" /></g></svg>
