<?xml version="1.0" encoding="UTF-8"?>
<!-- Created with Inkscape (http://www.inkscape.org/) -->
<svg width="52.917mm" height="52.917mm" version="1.1" viewBox="0 0 52.917 52.917" xml:space="preserve" xmlns="http://www.w3.org/2000/svg"><g transform="translate(-42.302 -85.926)"><path d="m66.503 139.09c-4.8346-0.55274-8.105-2.3852-9.4783-5.311-0.6181-1.3167-0.65934-1.6746-0.65934-5.7206v-3.7158l-3.4401-0.0415c-3.3891-0.0409-3.4536-0.046-4.3497-0.3448-2.9909-0.99731-4.9685-3.682-5.7028-7.7417-0.2845-1.5729-0.2845-5.2514 0-6.8244 0.74487-4.1182 2.7171-6.7547 5.8293-7.793l0.78312-0.26125 18.291-0.0642v-0.9994h-11.411v-3.2209c0-3.5074 0.05412-3.9364 0.65934-5.2257 1.2276-2.6153 4.0051-4.3762 8.0646-5.1131 1.0338-0.18764 1.7759-0.23621 3.7501-0.24542 2.6526-0.01238 3.6903 0.09303 5.5657 0.56531 3.5088 0.88365 5.9231 2.7817 6.8827 5.411l0.30529 0.83653 0.03442 3.9995 0.03442 3.9995h3.0748c2.3411 0 3.2806 0.0416 3.9371 0.17436 2.7216 0.55032 4.8729 2.6419 5.9071 5.743 0.59805 1.7933 0.76314 3.006 0.76314 5.6057 0 2.5997-0.1651 3.8124-0.76314 5.6057-0.79109 2.3721-2.2667 4.2119-4.0938 5.1042-1.6818 0.82134-1.5662 0.81314-11.462 0.81314h-8.7869v1.0069h11.411v3.2209c0 2.5354-0.03663 3.3628-0.17212 3.8876-0.86747 3.3604-3.8698 5.6224-8.5518 6.4431-1.4757 0.25865-4.9785 0.37096-6.422 0.20592zm5.7371-2.5293c3.2226-0.46187 5.6072-1.8465 6.5842-3.8233l0.41879-0.84736 0.08106-4.0943-11.492-0.058v-5.8175l20.702-0.1118 0.74108-0.36488c1.3403-0.65989 2.4772-2.1451 3.1071-4.0588 0.79959-2.4294 0.79959-6.735 0-9.1644-0.63612-1.9327-1.7565-3.3937-3.116-4.0634l-0.73151-0.36033-6.8858-0.0678v2.6115c0 2.8967-0.08174 3.4374-0.69297 4.5842-0.70117 1.3155-1.8882 2.3165-3.3177 2.7976-0.73512 0.24742-0.83762 0.25108-8.6311 0.30869-7.4542 0.0551-7.9086 0.0699-8.2787 0.26942-0.79174 0.42686-1.222 0.86267-1.5903 1.6108l-0.3675 0.74649v15.231l0.4191 0.848c1.5691 3.1749 6.8277 4.7158 13.05 3.8239zm1.8869-3.1728c-0.84457-0.2543-1.5237-1.0021-1.7067-1.8793-0.18811-0.90174 0.44913-2.0946 1.3336-2.4963 1.5237-0.69205 3.3033 0.45955 3.3033 2.1376 0 1.4932-1.528 2.6602-2.9302 2.238zm-17.762-14.129c0-2.8744 0.08344-3.4354 0.67597-4.5453 0.7135-1.3364 1.908-2.3504 3.3347-2.8305 0.73512-0.24741 0.83762-0.25108 8.6311-0.30869 7.4542-0.0551 7.9086-0.0699 8.2787-0.26941 0.79174-0.42687 1.222-0.86268 1.5903-1.6108l0.3675-0.7465v-7.5539c0-8.5426 0.04076-8.1167-0.89901-9.3933-1.3083-1.7773-4.0296-2.8757-7.7713-3.137-5.6358-0.39354-9.9615 1.1282-11.384 4.0046l-0.4191 0.84765-0.07724 4.0937 11.488 0.05798v5.8175l-20.702 0.1118-0.74108 0.36488c-1.7749 0.8739-3.042 2.9756-3.5232 5.8442-0.37006 2.2057-0.18056 5.5662 0.41611 7.379 0.72785 2.2114 2.1081 3.8145 3.7173 4.3174 0.34216 0.10693 1.3687 0.14939 3.7438 0.15482l3.2723 7e-3zm5.9853-22.666c-2.0287-0.93928-1.7597-3.8587 0.40348-4.3776 1.6602-0.39827 3.1861 1.1276 2.7878 2.7878-0.34014 1.4178-1.8924 2.1912-3.1913 1.5898z" fill="#1e877d" fill-opacity=".69516"/></g></svg>
