<?xml version="1.0" encoding="UTF-8" standalone="no"?>
<!-- Created with Inkscape (http://www.inkscape.org/) -->

<svg
   width="52.91666mm"
   height="47.086731mm"
   viewBox="0 0 52.91666 47.086732"
   version="1.1"
   id="svg1"
   xml:space="preserve"
   inkscape:version="1.3.2 (091e20ef0f, 2023-11-25)"
   sodipodi:docname="react.svg"
   xmlns:inkscape="http://www.inkscape.org/namespaces/inkscape"
   xmlns:sodipodi="http://sodipodi.sourceforge.net/DTD/sodipodi-0.dtd"
   xmlns="http://www.w3.org/2000/svg"
   xmlns:svg="http://www.w3.org/2000/svg"><sodipodi:namedview
     id="namedview1"
     pagecolor="#505050"
     bordercolor="#eeeeee"
     borderopacity="1"
     inkscape:showpageshadow="0"
     inkscape:pageopacity="0"
     inkscape:pagecheckerboard="0"
     inkscape:deskcolor="#505050"
     inkscape:document-units="mm"
     inkscape:zoom="1.6930717"
     inkscape:cx="214.10788"
     inkscape:cy="135.25712"
     inkscape:window-width="1920"
     inkscape:window-height="1037"
     inkscape:window-x="0"
     inkscape:window-y="0"
     inkscape:window-maximized="1"
     inkscape:current-layer="layer1" /><defs
     id="defs1" /><g
     inkscape:label="Layer 1"
     inkscape:groupmode="layer"
     id="layer1"
     transform="translate(319.61869,141.6245)"><path
       style="fill:#1e877d;fill-opacity:0.694118;stroke-width:1.06789"
       d="m -282.78467,-94.546176 c -2.8371,-0.16928 -6.3417,-2.076921 -9.84764,-5.3603 -0.15398,-0.144204 -0.31363,-0.292464 -0.35478,-0.329464 l -0.0749,-0.0673 -0.23156,0.22042 c -1.84767,1.758675 -3.88057,3.223851 -5.81215,4.188999 -2.29589,1.147186 -4.34891,1.558955 -5.99445,1.202294 -0.6251,-0.135482 -1.2381,-0.409617 -1.71266,-0.76589 -0.39112,-0.293629 -0.73005,-0.639747 -1.03084,-1.052662 -0.8103,-1.112386 -1.31475,-2.686322 -1.48431,-4.631251 -0.0353,-0.40578 -0.0439,-0.60809 -0.0515,-1.22787 -0.009,-0.66454 0.003,-1.10223 0.0448,-1.69003 0.10497,-1.49338 0.36934,-3.13421 0.77688,-4.82179 0.0302,-0.1252 0.0507,-0.23144 0.0456,-0.23609 -0.005,-0.004 -0.15218,-0.0504 -0.32669,-0.10166 -0.4147,-0.12187 -1.2894,-0.41226 -1.72453,-0.57253 -1.60926,-0.59274 -3.05074,-1.27926 -4.31132,-2.05334 -0.43869,-0.26938 -1.01818,-0.66722 -1.40032,-0.96137 -1.18655,-0.91331 -2.08344,-1.88867 -2.64507,-2.87651 -0.72602,-1.27699 -0.8872,-2.5674 -0.47857,-3.83164 0.38644,-1.19559 1.24568,-2.34823 2.56489,-3.44069 1.88577,-1.56162 4.70851,-2.92555 8.07769,-3.90306 0.13658,-0.0396 0.25505,-0.0759 0.26325,-0.0806 0.01,-0.005 -0.006,-0.0987 -0.0517,-0.28451 -0.39046,-1.61857 -0.65165,-3.21305 -0.76272,-4.65623 -0.0504,-0.65497 -0.056,-0.82083 -0.056,-1.68314 0,-0.87021 0.006,-1.04498 0.0565,-1.60035 0.25109,-2.77252 1.21225,-4.78251 2.7435,-5.73719 0.54984,-0.34282 1.1589,-0.54783 1.91836,-0.64576 0.24182,-0.0312 1.04885,-0.0358 1.31064,-0.007 1.07856,0.11656 2.02828,0.37736 3.21451,0.88273 0.39347,0.16762 1.13833,0.53492 1.54515,0.76193 1.70831,0.95321 3.43682,2.2439 5.17222,3.86209 0.15098,0.14079 0.27568,0.25598 0.2771,0.25598 0.001,0 0.13862,-0.12768 0.30492,-0.28372 2.03084,-1.90566 3.94877,-3.30241 5.86222,-4.26921 2.09786,-1.05998 3.95188,-1.46501 5.5185,-1.20557 1.61488,0.26744 2.83516,1.31532 3.60513,3.09583 1.00329,2.32002 1.15513,5.75018 0.42902,9.69083 -0.0938,0.50914 -0.26344,1.30734 -0.35846,1.6868 -0.0468,0.18697 -0.0455,0.17671 -0.0226,0.17671 0.034,0 0.88873,0.26528 1.33655,0.41478 1.37088,0.45763 2.47429,0.90935 3.62616,1.4845 0.87328,0.43603 1.47097,0.77927 2.17291,1.24782 0.42721,0.28516 0.72592,0.50268 1.06921,0.77854 1.31879,1.05977 2.22866,2.23839 2.63017,3.40705 0.41052,1.19488 0.31551,2.3539 -0.29246,3.56783 -1.09487,2.18607 -3.84018,4.25682 -7.68375,5.79575 -0.79791,0.31948 -1.70363,0.63726 -2.53161,0.88826 -0.11762,0.0357 -0.218,0.0686 -0.22308,0.0731 -0.005,0.004 0.0183,0.12321 0.0518,0.26359 0.0842,0.3518 0.21407,0.95651 0.28011,1.30373 0.67142,3.53061 0.63827,6.67865 -0.0949,9.012981 -0.45045,1.434074 -1.15822,2.530611 -2.07641,3.216886 -0.6097,0.455712 -1.292,0.734315 -2.07633,0.847824 -0.34355,0.04972 -0.84007,0.07063 -1.18648,0.04996 z m 0.91056,-2.310317 c 0.54153,-0.09397 0.89442,-0.268874 1.24126,-0.615208 0.67404,-0.673093 1.14773,-1.846483 1.37276,-3.400579 0.0972,-0.67147 0.13571,-1.26153 0.1354,-2.07633 -4.7e-4,-1.26452 -0.12189,-2.53555 -0.3769,-3.94572 -0.13541,-0.74875 -0.36384,-1.77575 -0.39385,-1.77067 -0.007,0.001 -0.17074,0.0373 -0.36389,0.0801 -1.95045,0.43279 -4.14283,0.76898 -6.46362,0.99114 l -0.31678,0.0303 -0.10982,0.15866 c -0.21935,0.31689 -0.76448,1.07756 -1.02354,1.42825 -1.08935,1.47461 -2.04606,2.64809 -3.24934,3.98558 l -0.0497,0.0551 0.15309,0.14654 c 0.88672,0.84884 1.91433,1.71312 2.82265,2.374033 2.06425,1.501971 3.99972,2.393499 5.58058,2.570556 0.24337,0.02726 0.85654,0.0203 1.04162,-0.01181 z m -21.37036,-0.02141 c 1.38575,-0.182641 2.95552,-0.82381 4.65623,-1.901827 1.21832,-0.772258 2.5539,-1.8245 3.72845,-2.93746 l 0.21043,-0.19938 -0.0448,-0.0523 c -0.0247,-0.0288 -0.17213,-0.19138 -0.32769,-0.36127 -1.18091,-1.2898 -2.44459,-2.84129 -3.61633,-4.43995 -0.16939,-0.23109 -0.51011,-0.70482 -0.54328,-0.75535 -0.002,-0.004 -0.13125,-0.0163 -0.68286,-0.0658 -1.75128,-0.15691 -3.46708,-0.3916 -5.093,-0.69666 -0.40428,-0.0758 -1.05704,-0.20819 -1.25675,-0.25478 -0.0468,-0.0109 -0.0869,-0.0179 -0.0892,-0.0157 -0.007,0.007 -0.0994,0.39047 -0.17781,0.73971 -0.79327,3.53446 -0.84942,6.6166 -0.15808,8.67782 0.15828,0.471934 0.33625,0.851079 0.55138,1.174651 0.45613,0.686036 0.97364,1.013476 1.73967,1.100726 0.0721,0.0082 0.1528,0.01746 0.17936,0.02056 0.12814,0.01494 0.72133,-0.0062 0.92434,-0.03299 z m 10.50575,-7.036437 c 0.42543,-0.47874 0.92382,-1.06904 1.37449,-1.62795 0.49842,-0.61815 1.40148,-1.80217 1.38618,-1.81746 -0.004,-0.004 -0.20185,-5.6e-4 -0.43912,0.009 -1.74134,0.0644 -3.75373,0.0659 -5.55226,0.004 l -0.26462,-0.009 0.0363,0.0483 c 0.02,0.0266 0.1666,0.21592 0.32579,0.42078 0.87289,1.12337 1.71327,2.12416 2.62666,3.12803 l 0.18491,0.20323 0.0658,-0.0722 c 0.0362,-0.0397 0.15131,-0.16839 0.25582,-0.286 z m 1.65562,-5.68298 c 0.97027,-0.0347 1.84702,-0.0773 2.44193,-0.11877 0.15936,-0.0111 0.30083,-0.0202 0.31439,-0.0202 0.0169,-3e-5 0.0882,-0.0968 0.22631,-0.307 1.26459,-1.92515 2.47824,-3.97033 3.52242,-5.93583 0.24741,-0.46571 0.79103,-1.53018 0.94613,-1.85262 l 0.1346,-0.27984 -0.23208,-0.45825 c -1.29528,-2.55758 -2.71802,-5.01184 -4.2185,-7.27706 -0.35327,-0.5333 -0.38933,-0.58288 -0.42408,-0.58288 -0.0209,0 -0.1645,-0.01 -0.31914,-0.0205 -1.67355,-0.12173 -3.70646,-0.17724 -5.3902,-0.14717 -1.23355,0.022 -1.99086,0.0516 -3.06522,0.11971 -0.82065,0.052 -0.80055,0.0503 -0.82256,0.0723 -0.0271,0.0271 -0.56773,0.83718 -0.85381,1.2794 -0.57405,0.88736 -1.19032,1.8976 -1.83265,3.00424 -0.3071,0.52909 -0.81707,1.4626 -1.21523,2.22453 -0.21042,0.40264 -0.82312,1.62908 -0.87746,1.75642 l -0.0313,0.0733 0.38768,0.77519 c 1.25602,2.51156 2.5653,4.76171 4.11723,7.07596 l 0.33031,0.49254 0.0575,0.007 c 0.0316,0.004 0.23126,0.0168 0.44372,0.0281 0.21247,0.0113 0.44217,0.0239 0.51047,0.0281 0.26617,0.0159 1.13086,0.0478 1.67624,0.0619 0.3149,0.009 0.64704,0.0168 0.73809,0.0191 0.36164,0.01 3.05976,-0.004 3.43526,-0.018 z m -2.50401,-3.82277 c -0.86054,-0.0874 -1.65145,-0.38511 -2.33847,-0.88036 -0.28134,-0.20282 -0.68709,-0.58685 -0.89918,-0.85108 -0.58156,-0.72454 -0.93846,-1.58211 -1.03184,-2.47933 -0.0245,-0.23453 -0.0281,-0.73905 -0.006,-0.95086 0.13367,-1.33557 0.7992,-2.52618 1.8598,-3.32711 1.15969,-0.87576 2.64484,-1.17012 4.05138,-0.803 1.44954,0.37834 2.64305,1.4338 3.19828,2.82835 0.4719,1.18524 0.44502,2.49407 -0.0755,3.67464 -0.22163,0.50268 -0.53021,0.95624 -0.92922,1.3658 -0.41194,0.42284 -0.79389,0.70102 -1.31063,0.95457 -0.47723,0.23416 -0.93237,0.37306 -1.46931,0.4484 -0.18422,0.0258 -0.86321,0.0388 -1.04851,0.02 z m -7.25682,3.44318 c 0,-0.003 -0.0549,-0.0917 -0.12187,-0.1966 -0.76631,-1.19832 -1.61442,-2.63288 -2.32304,-3.92935 -0.22163,-0.40549 -0.58168,-1.07966 -0.66171,-1.239 l -0.0333,-0.0663 -0.16065,0.39053 c -0.43232,1.05088 -0.79558,2.01297 -1.15283,3.05321 -0.20672,0.60187 -0.39334,1.19467 -0.38012,1.20732 0.0123,0.0118 0.48376,0.11176 0.97059,0.20594 0.97042,0.18773 2.11751,0.36777 3.16624,0.49695 0.18969,0.0234 0.41318,0.0509 0.49665,0.0614 0.17883,0.0222 0.20005,0.0239 0.20005,0.0159 z m 15.79668,-0.0839 c 1.27221,-0.15806 2.6644,-0.39056 3.88364,-0.64857 0.4815,-0.10188 0.63985,-0.1382 0.6509,-0.14924 0.0107,-0.0107 -0.32519,-1.00863 -0.51331,-1.52662 -0.32605,-0.89777 -0.67785,-1.78425 -1.07607,-2.71148 -0.19135,-0.44554 -0.16999,-0.4094 -0.20289,-0.34347 -0.057,0.11432 -0.35398,0.67606 -0.53186,1.00622 -0.70379,1.3062 -1.47693,2.63544 -2.37124,4.07678 -0.10594,0.17073 -0.1975,0.31857 -0.20349,0.32854 -0.009,0.0141 -4.8e-4,0.0164 0.0353,0.0107 0.0254,-0.004 0.17347,-0.0234 0.32902,-0.0427 z m -22.76849,-1.49706 c 0.59737,-1.90397 1.34057,-3.85726 2.21239,-5.8147 0.10476,-0.23522 0.21864,-0.48829 0.25305,-0.56238 l 0.0626,-0.1347 -0.0558,-0.12053 c -0.4673,-1.01032 -1.04653,-2.39315 -1.48141,-3.53665 -0.34497,-0.90709 -0.78386,-2.17637 -0.99411,-2.87497 -0.0205,-0.0682 -0.0424,-0.12973 -0.0485,-0.13653 -0.0127,-0.0142 -0.0475,-0.005 -0.55059,0.14565 -2.33391,0.69912 -4.36381,1.60072 -5.91169,2.62575 -0.69618,0.46103 -1.19589,0.86212 -1.68338,1.35119 -0.94293,0.94597 -1.40126,1.87491 -1.31764,2.67062 0.0801,0.76255 0.58368,1.62371 1.4555,2.48927 1.60088,1.58934 4.26113,3.00868 7.5124,4.00813 0.42432,0.13044 0.44675,0.13696 0.45994,0.13373 0.006,-0.002 0.0456,-0.11131 0.0871,-0.24388 z m 29.61909,0.0978 c 0.0451,-0.0147 0.2687,-0.0861 0.49686,-0.15861 1.29242,-0.41095 2.51983,-0.90262 3.65504,-1.4641 2.85986,-1.41451 4.74606,-3.17201 5.05188,-4.70722 0.0329,-0.16511 0.0331,-0.53037 4.7e-4,-0.69416 -0.084,-0.42112 -0.2947,-0.87041 -0.61357,-1.30833 -0.35535,-0.48802 -0.8998,-1.03242 -1.52088,-1.52075 -1.60007,-1.25808 -3.96068,-2.39818 -6.71877,-3.24494 -0.50103,-0.15382 -0.55115,-0.16737 -0.56459,-0.15263 -0.006,0.006 -0.0502,0.13654 -0.0978,0.2883 -0.54483,1.73776 -1.37156,3.8678 -2.26357,5.83194 -0.11318,0.2492 -0.20578,0.46082 -0.20578,0.47026 0,0.01 0.0643,0.1536 0.14295,0.32034 0.90538,1.92008 1.7117,3.92064 2.32829,5.77682 0.10775,0.32439 0.20302,0.58979 0.21169,0.58979 0.009,0 0.0526,-0.0121 0.0978,-0.0267 z m -25.62733,-9.58927 c 0.85344,-1.62613 1.75428,-3.18879 2.72304,-4.72353 0.11917,-0.18879 0.21384,-0.34605 0.2104,-0.3495 -0.007,-0.007 -0.27412,0.0268 -0.85014,0.10785 -1.01277,0.14252 -1.98509,0.30736 -2.9317,0.49704 -0.46113,0.0924 -0.97399,0.20188 -0.98168,0.20956 -0.007,0.007 0.25699,0.82298 0.41368,1.27861 0.3705,1.07741 0.68599,1.90532 1.21324,3.1839 0.0227,0.0552 0.0428,0.0987 0.0444,0.0965 0.002,-0.002 0.073,-0.13736 0.15871,-0.3005 z m 21.72584,-0.16555 c 0.32584,-0.78299 0.6685,-1.66996 0.94874,-2.45573 0.11287,-0.31649 0.47541,-1.39706 0.52135,-1.55391 l 0.0207,-0.0708 -0.0437,-0.007 c -0.024,-0.004 -0.17399,-0.0364 -0.33333,-0.0713 -0.99931,-0.21927 -2.124,-0.42532 -3.19383,-0.58513 -0.53608,-0.0801 -1.19855,-0.16921 -1.22054,-0.1642 -0.0128,0.003 0.0357,0.0909 0.14691,0.26647 0.94393,1.49036 2.07746,3.45282 2.93519,5.08164 0.01,0.0177 0.019,0.0301 0.0215,0.0276 0.002,-0.002 0.0911,-0.21261 0.19688,-0.46681 z m 2.11501,-6.322 c 0.0414,-0.15381 0.19876,-0.87563 0.27295,-1.25213 0.34306,-1.74114 0.50218,-3.32893 0.48041,-4.79419 -0.009,-0.58071 -0.0205,-0.81312 -0.0653,-1.27614 -0.21178,-2.18977 -0.92969,-3.77696 -1.92571,-4.25741 -0.46693,-0.22523 -1.09464,-0.28817 -1.83596,-0.18409 -1.74587,0.2451 -3.98473,1.3874 -6.26734,3.19766 -0.62831,0.49829 -1.48487,1.24618 -2.07384,1.8107 l -0.13546,0.12984 0.25838,0.28282 c 1.31733,1.44199 2.76553,3.25604 4.06683,5.09426 0.0739,0.10433 0.13634,0.1897 0.13884,0.1897 0.0267,0 0.80039,0.0806 1.13222,0.11797 1.91966,0.21614 3.92364,0.54592 5.51849,0.90813 0.21247,0.0483 0.39382,0.0885 0.40301,0.0896 0.01,0.001 0.0238,-0.0245 0.0325,-0.0567 z m -25.89806,-0.0513 c 1.62027,-0.34945 3.16057,-0.60813 4.8855,-0.82048 0.48905,-0.0602 1.3309,-0.15134 1.67624,-0.18146 l 0.11038,-0.01 0.26212,-0.36652 c 1.21968,-1.70534 2.71792,-3.55745 4.01946,-4.96879 l 0.20991,-0.22764 -0.13492,-0.12977 c -0.0742,-0.0713 -0.23762,-0.22347 -0.36313,-0.338 -2.91514,-2.66016 -5.83466,-4.32587 -8.11641,-4.63077 -0.2732,-0.0365 -0.73446,-0.0498 -0.96894,-0.0279 -0.48303,0.0452 -0.87798,0.18029 -1.18321,0.40485 -0.49626,0.36509 -0.91761,1.06127 -1.19466,1.9739 -0.58433,1.92491 -0.56493,4.69015 0.0549,7.82526 0.11121,0.56254 0.34016,1.57904 0.35564,1.57904 0.003,0 0.1776,-0.037 0.38716,-0.0821 z m 10.25223,-1.24273 c 1.79234,-0.062 4.16625,-0.0522 5.45504,0.0226 l 0.15039,0.009 -0.17733,-0.23273 c -0.93027,-1.22093 -1.79602,-2.26556 -2.75769,-3.32746 l -0.16639,-0.18373 -0.0552,0.0619 c -0.0303,0.0341 -0.16417,0.18195 -0.29737,0.32859 -0.86833,0.956 -1.74643,2.01328 -2.66002,3.20283 l -0.11472,0.14936 0.10814,-0.009 c 0.0595,-0.004 0.29129,-0.0144 0.51513,-0.0221 z"
       id="path4" /></g></svg>
