<?xml version="1.0" encoding="UTF-8" standalone="no"?>
<!-- Created with Inkscape (http://www.inkscape.org/) -->

<svg
   width="52.916668mm"
   height="48.741753mm"
   version="1.1"
   viewBox="0 0 52.916668 48.741753"
   xml:space="preserve"
   id="svg1"
   sodipodi:docname="sql.svg"
   inkscape:version="1.3.2 (091e20ef0f, 2023-11-25)"
   xmlns:inkscape="http://www.inkscape.org/namespaces/inkscape"
   xmlns:sodipodi="http://sodipodi.sourceforge.net/DTD/sodipodi-0.dtd"
   xmlns="http://www.w3.org/2000/svg"
   xmlns:svg="http://www.w3.org/2000/svg"><defs
     id="defs1" /><sodipodi:namedview
     id="namedview1"
     pagecolor="#505050"
     bordercolor="#eeeeee"
     borderopacity="1"
     inkscape:showpageshadow="0"
     inkscape:pageopacity="0"
     inkscape:pagecheckerboard="0"
     inkscape:deskcolor="#505050"
     inkscape:document-units="mm"
     inkscape:zoom="0.75879269"
     inkscape:cx="-106.08958"
     inkscape:cy="-26.35766"
     inkscape:window-width="1920"
     inkscape:window-height="1037"
     inkscape:window-x="0"
     inkscape:window-y="0"
     inkscape:window-maximized="1"
     inkscape:current-layer="svg1" /><g
     id="g3"
     transform="matrix(0.62287263,0,0,0.62287263,14.396946,14.44293)"><path
       style="fill:#1e877d;fill-opacity:0.694118;stroke-width:0.437749"
       d="m 39.508039,32.865568 c -1.21363,-0.288302 -2.5689,-1.31615 -3.35909,-2.54756 -1.16798,-1.820135 -1.48263,-3.768325 -1.58291,-9.800603 l -0.0677,-4.071203 -0.61461,0.50061 c -1.66044,1.352439 -3.92791,1.838165 -6.43392,1.378236 -1.86508,-0.342303 -3.08164,-1.207917 -3.18975,-2.269598 -0.10968,-1.07706 0.63101,-1.604684 3.06501,-2.183318 1.73482,-0.412417 2.18146,-0.658554 2.90085,-1.598625 l 0.50268,-0.656869 -0.75925,-0.139489 c -0.41759,-0.07672 -1.0909,-0.272166 -1.49625,-0.434326 -0.40534,-0.162164 -0.81476,-0.294841 -0.90982,-0.294841 -0.18003,0 -1.55791,1.50545 -3.28621,3.590453 -2.27056,2.739198 -3.22634,3.4382 -4.55764,3.333184 -0.92071,-0.07263 -1.6915,-0.480381 -2.56722,-1.358073 -1.33982,-1.342835 -2.84429,-3.968244 -3.8862,-6.7816882 -0.21232,-0.573312 -0.52259,-1.407224 -0.6895,-1.853137 -0.27461,-0.733663 -0.47323,-1.381913 -1.40169,-4.574934 -0.27885,-0.959003 -0.91572,-3.62287695 -1.4814099,-6.196431 -1.00236,-4.560129 -1.02564,-9.5922178 -0.0577,-12.4752878 0.5753299,-1.71367 1.7294299,-3.477432 2.9247299,-4.469752 1.17421,-0.97481 2.96133,-1.81301 4.68493,-2.19735 1.26328,-0.28169 5.07783,-0.27283 6.62891,0.0154 1.45844,0.27102 3.53332,0.79967 4.74165,1.20812 l 0.97747,0.33041 1.22314,-0.6174 c 0.67272,-0.33957 1.68501,-0.74718 2.24953,-0.90579 0.94466,-0.26543 1.2194,-0.28839 3.45055,-0.28839 1.73344,0 2.67062,0.0509 3.28907,0.17865 0.85808,0.17724 0.87604,0.1759 2.28258,-0.17034 2.10031,-0.517 3.63354,-0.70324 5.78964,-0.70324 3.50157,0 5.44088,0.49726 8.6359,2.21435 1.15179,0.619 3.28854,2.589202 4.13951,3.816852 1.07388,1.54925 1.28269,5.474555 0.50169,9.4309228 -0.30564,1.548301 -1.30459,5.089854 -1.78046,6.312251 -0.21079,0.54146505 -0.56571,1.45355505 -0.78871,2.02687005 -0.90327,2.32217195 -2.19173,4.96561195 -3.49379,7.16795495 -0.28884,0.488554 -0.52517,0.915377 -0.52517,0.948488 0,0.03309 -0.20847,0.374074 -0.46328,0.757691 -0.2548,0.383618 -0.46328,0.7402652 -0.46328,0.7925452 0,0.239432 1.0379,0.508919 2.14269,0.556336 0.90851,0.039 1.53074,-0.01663 2.88619,-0.257983 2.00534,-0.357086 2.46945,-0.327021 2.90285,0.188043 0.77558,0.921729 -0.14945,2.387931 -2.39268,3.792453 -1.76646,1.106004 -3.7537,1.564516 -6.46118,1.490781 -0.98982,-0.02697 -1.87718,-0.07127 -1.97191,-0.09847 -0.14068,-0.0404 -0.199,0.215837 -0.31827,1.398311 -0.40532,4.01845 -1.00995,8.230839 -1.42797,9.948439 -0.74273,3.051847 -2.80047,4.843686 -6.34397,5.524193 -0.9204,0.176759 -2.49477,0.198336 -3.14806,0.04316 z m 4.10057,-1.085062 c 0.56605,-0.16976 1.31103,-0.441996 1.65553,-0.604965 0.74333,-0.351657 1.91291,-1.398447 2.37689,-2.127361 0.82127,-1.290235 1.30016,-3.72106 2.01946,-10.25063 0.23157,-2.102155 0.45642,-3.86199 0.49966,-3.910751 0.0433,-0.04876 0.23719,-0.0095 0.43099,0.08713 0.19379,0.09668 0.78153,0.233539 1.30607,0.30413 1.71073,0.230226 4.81635,-0.266274 6.27046,-1.002467 1.73227,-0.877018 3.11687,-2.153319 3.11687,-2.873079 0,-0.603993 -0.52507,-0.661627 -2.67833,-0.293984 -2.57824,0.440201 -4.89679,0.208119 -5.57631,-0.558174 -0.19885,-0.224237 -0.18159,-0.269618 0.56798,-1.4935342 3.04811,-4.97702 4.94601,-9.34261795 6.57938,-15.133987 0.41306,-1.464599 0.7848,-4.0786528 0.84381,-5.9337018 0.0677,-2.126923 -0.10953,-3.398494 -0.6186,-4.438994 -0.42072,-0.85992 -2.47468,-2.913832 -3.76401,-3.763942 -3.41017,-2.24845 -7.63939,-2.98427 -12.43754,-2.16396 -1.45221,0.24828 -3.05693,0.65194 -3.22575,0.81144 -0.0542,0.0512 -0.2627,0.0452 -0.46329,-0.0135 -1.42241,-0.41591 -4.78959,-0.59171 -6.27926,-0.32786 -1.32389,0.23449 -3.19569,0.97599 -4.1304,1.63622 -0.31593,0.22316 -0.31615,0.22314 -1.35573,-0.13381 -1.53544,-0.52719 -4.04375,-1.13415 -5.56289,-1.34608 -1.84822,-0.25784 -5.0148,-0.17398 -6.28558,0.16646 -2.95237,0.79093 -4.8599,2.27749 -6.10733,4.759512 -0.9622999,1.91468 -1.3187499,3.78162 -1.3172899,6.8992868 8.7e-4,2.008853 0.0378,2.411521 0.4231,4.621182 0.5386299,3.089012 1.6231499,7.56076 2.5831699,10.651019 2.36269,7.6054062 4.90049,11.5494382 7.42405,11.5378472 1.06897,-0.0049 1.82322,-0.528386 3.25051,-2.255967 1.09759,-1.328507 2.78549,-3.26212 3.65146,-4.182986 l 0.67286,-0.7155232 0.65908,0.3375002 c 0.71184,0.364518 1.98288,0.675762 2.77282,0.678988 l 0.49224,0.0022 v 0.475571 c 0,0.508428 -0.27107,0.943445 -1.20698,1.937005 -0.63314,0.672137 -0.88072,0.786447 -2.69061,1.242288 -2.17737,0.54839 -2.70422,0.842807 -2.70422,1.511202 0,0.322249 0.59137,0.898266 1.23078,1.19882 1.28832,0.605582 3.95388,0.71987 5.51851,0.236603 0.93741,-0.28954 2.36333,-1.221653 2.93376,-1.917796 0.23171,-0.282773 0.46714,-0.514132 0.52316,-0.514132 0.0566,0 0.10187,1.73958 0.10187,3.914764 0,6.157034 0.23775,8.367692 1.09439,10.176082 0.75229,1.588093 1.61077,2.435032 2.98524,2.945115 0.90308,0.335141 2.99923,0.253098 4.42002,-0.172998 z m -3.45834,0.02373 c -1.58118,-0.207467 -2.77611,-1.173593 -3.59833,-2.909303 -0.88402,-1.866199 -1.09551,-4.071841 -1.09551,-11.425326 v -4.726229 l -0.31851,-0.605342 c -0.61974,-1.177838 -1.94867,-1.725721 -2.84388,-1.172449 -0.21863,0.135115 -0.43635,0.245664 -0.48385,0.245664 -0.29886,0 0.69934,-3.2973232 1.60523,-5.3025212 0.9729,-2.153507 1.42706,-4.514888 1.30797,-6.80078695 -0.11853,-2.27540705 -0.64293,-5.20191405 -1.05949,-5.91272205 -0.4023,-0.686474 -1.09345,-1.264333 -1.81112,-1.51424 -1.57847,-0.549664 -4.45747,0.0313 -6.44011,1.299585 -0.33896,0.216826 -0.67527,0.394233 -0.74735,0.394233 -0.18935,0 -0.0484,-1.964211 0.2522,-3.5149288 0.82262,-4.243542 2.37059,-7.313522 4.65303,-9.228014 0.94004,-0.78851 2.60704,-1.64432 3.85901,-1.98115 1.237,-0.33282 4.55102,-0.36517 6.11245,-0.0597 4.00678,0.78393 7.64968,3.153242 10.21833,6.645912 1.3357,1.81621 2.39258,3.815503 2.87358,5.4359398 l 0.17781,0.59899 -1.69943,-0.06417 c -1.91511,-0.07232 -2.75016,0.0705 -3.7837,0.647094 -0.64439,0.359502 -1.24208,1.13335 -1.47299,1.907147 -0.40384,1.353284 0.0194,3.931946 1.03892,6.33047405 1.21675,2.86241495 3.58946,7.36589995 4.62264,8.77394195 1.00254,1.3662942 1.05559,1.5035282 0.64405,1.6664062 -1.97179,0.780397 -2.18292,1.085491 -2.34752,3.39228 -0.0549,0.768819 -0.18144,2.049345 -0.28129,2.845615 -0.0999,0.79627 -0.28286,2.395534 -0.40669,3.553923 -0.46335,4.334316 -0.99624,7.022371 -1.64548,8.300301 -0.5147,1.013078 -1.66232,1.97603 -2.91851,2.448856 -1.6964,0.638523 -3.20653,0.888583 -4.41146,0.73049 z M 27.680249,17.171429 c -1.55632,-0.242486 -2.76062,-0.937956 -2.45789,-1.419401 0.21191,-0.337028 0.78049,-0.596486 1.85039,-0.844392 2.61405,-0.605709 2.97743,-0.814573 4.22664,-2.429385 0.75285,-0.973187 1.27418,-1.382819 1.75988,-1.382819 1.0866,0 2.04969,1.108573 2.04969,2.359319 0,0.556786 -0.0523,0.69736 -0.44327,1.192004 -1.15933,1.466665 -2.64313,2.373419 -4.22691,2.583083 -1.11435,0.147517 -1.48759,0.139612 -2.75853,-0.05841 z m -8.64686,-0.807345 c -1.1598,-0.503867 -2.2114,-1.719312 -3.36217,-3.886017 -2.00751,-3.7798152 -4.24378,-11.1553722 -5.42339,-17.8871492 -0.3847799,-2.19585 -0.4262699,-2.634864 -0.4269599,-4.517024 -0.002,-4.4221358 1.0326299,-7.3442958 3.2954899,-9.3112078 2.54445,-2.21167 6.50049,-2.85976 11.41488,-1.87002 1.23557,0.24884 4.44443,1.13506 4.68212,1.2931 0.12868,0.0856 0.0646,0.19763 -0.30817,0.53896 -1.99259,1.824552 -3.4105,4.767092 -4.30973,8.943795 -0.30556,1.4192488 -0.31198,1.5344548 -0.32633,5.8489678 -0.008,2.537487 -0.0763,5.03879005 -0.1603,5.906878 -0.32425,3.351823 0.22607,5.192011 2.16595,7.242651 l 0.83689,0.884669 -0.93265,1.0324712 c -0.51295,0.567857 -1.56711,1.787768 -2.34256,2.710911 -1.71338,2.039709 -2.42354,2.748815 -3.03141,3.026917 -0.55336,0.253163 -1.24784,0.269666 -1.77166,0.04211 z m 32.72123,-1.456969 c -0.89551,-0.131045 -1.45781,-0.409598 -1.5474,-0.766551 -0.11922,-0.475015 0.0336,-1.584622 0.28643,-2.080303 0.2767,-0.542371 0.60955,-0.785545 1.48972,-1.088367 l 0.63651,-0.218992 0.37341,0.284812 c 0.73125,0.557754 1.26728,0.676489 3.0793,0.682088 1.31888,0.0039 1.95985,-0.05247 2.9858,-0.26338 1.30261,-0.267794 1.87869,-0.259897 1.87869,0.02574 0,0.257392 -0.798,1.098287 -1.54495,1.627989 -1.47343,1.04489 -2.99715,1.574067 -5.20092,1.806236 -1.22012,0.128541 -1.50213,0.127469 -2.43659,-0.0093 z m -22.04863,-4.677788 c -1.11935,-0.203133 -2.07865,-0.7408512 -3.08415,-1.7287722 -1.9293,-1.895554 -2.51974,-3.852849 -2.17125,-7.197563 0.0795,-0.76351795 0.13955,-2.720519 0.13378,-4.36397 l -0.0105,-2.979671 0.66363,-0.449708 c 1.23359,-0.835943 2.61954,-1.375736 4.23501,-1.649434 1.8813,-0.318734 3.38679,0.35722 4.02898,1.808985 0.28303,0.639853 0.78223,3.721358 0.87168,5.38083905 0.12094,2.24374895 -0.29779,4.51145095 -1.20832,6.54389395 -0.53229,1.188152 -1.6464,4.323583 -1.6464,4.6334482 0,0.215736 -0.63076,0.216415 -1.81252,0.0018 z m 2.03527,-15.4170612 c 0.196,-0.164917 0.35636,-0.402002 0.35636,-0.526857 0,-0.498491 -1.73604,-0.901601 -2.25346,-0.523259 -0.31423,0.22977 -0.14759,0.705008 0.37069,1.057186 0.55908,0.379909 1.06933,0.377545 1.52641,-0.0071 z m 20.35673,14.233519 -0.44206,-0.650964 0.42125,-0.921536 c 0.92295,-2.019087 1.10887,-3.917111 0.69462,-7.09130895 -0.25955,-1.98877305 -0.2448,-3.60210605 0.05,-5.47279205 0.13305,-0.844182 0.25192,-2.09505 0.26417,-2.779707 0.0223,-1.24428 0.022,-1.245449 -0.5426,-2.6304568 -1.27457,-3.12647 -3.43984,-6.052122 -5.96813,-8.063962 -0.94767,-0.754092 -2.58859,-1.704982 -3.79821,-2.201022 -0.68471,-0.28079 -1.14892,-0.53222 -1.0905,-0.59064 0.13517,-0.13517 1.77523,-0.52246 3.08443,-0.72837 4.3586,-0.6855 8.3767,0.0734 11.67068,2.20428 1.05088,0.67981 3.32342,2.944442 3.65507,3.642332 0.13622,0.28666 0.33559,0.96087 0.44304,1.49824 0.39032,1.952043 -0.0187,6.1900848 -0.87762,9.0930668 -0.85371,2.885428 -1.15948,3.806859 -1.7183,5.17794605 -0.32848,0.805936 -0.59723,1.49486095 -0.59723,1.53094895 0,0.03607 -0.31271,0.720422 -0.69493,1.520736 -0.3822,0.80032 -0.69492,1.477955 -0.69492,1.505862 0,0.288766 -3.13455,5.618326 -3.3009,5.612421 -0.0637,-0.0022 -0.31475,-0.297048 -0.55788,-0.655074 z m -1.41561,-2.148871 c -0.30205,-0.589241 -0.98061,-1.879196 -1.5079,-2.866574 -2.17171,-4.06657195 -3.09391,-6.69568 -3.10789,-8.860314 -0.0109,-1.679863 0.55314,-2.626268 1.94055,-3.256346 0.63813,-0.289799 0.86477,-0.326942 2.21648,-0.363245 0.82812,-0.02224 1.74021,0.0039 2.02687,0.05788 l 0.5212,0.09832 -0.0294,0.805121 c -0.0162,0.442818 -0.13896,1.532958 -0.27284,2.422539 -0.28136,1.86957 -0.26233,3.683488 0.0698,6.654864 0.16688,1.492843 0.17756,1.958783 0.065,2.83626 -0.18999,1.481483 -0.93363,3.542835 -1.27809,3.542835 -0.0521,0 -0.34178,-0.482106 -0.64382,-1.071347 z m -0.73833,-12.718478 c 0.18588,-0.132353 0.39657,-0.35016 0.4682,-0.484015 0.18599,-0.347516 -0.14061,-0.551918 -0.87674,-0.548723 -0.57464,0.0026 -1.5704,0.350751 -1.5704,0.549231 0,0.126562 0.58058,0.671429 0.81075,0.760874 0.27739,0.1078 0.80231,-0.01685 1.16819,-0.277367 z"
       id="path2" /><path
       style="fill:#1e877d;fill-opacity:0.694118;stroke-width:0.100417"
       d="m 29.634769,55.013213 c -0.15968,-0.0797 -0.27008,-0.17068 -0.62794,-0.51744 -0.18266,-0.177 -0.4158,-0.38036 -0.51809,-0.45192 -0.10229,-0.0715 -0.51595,-0.37201 -0.91925,-0.66768 -1.39454,-1.02238 -1.8206,-1.27357 -3.39815,-2.00341 -0.88273,-0.40839 -1.63078,-0.77965 -2.00592,-0.99556 -0.75346,-0.43364 -2.55247,-1.75621 -3.05135,-2.24325 -0.41985,-0.40987 -0.89164,-0.99384 -1.2464,-1.54275 -0.17917,-0.27723 -0.26378,-0.44361 -0.38412,-0.75539 -0.11125,-0.2882 -0.17791,-0.42461 -0.26293,-0.53805 -0.0788,-0.10509 -0.0788,-0.14684 -5e-4,-0.31504 0.11589,-0.24887 0.32963,-0.37096 0.94672,-0.54077 0.21189,-0.0583 0.47492,-0.14343 0.58451,-0.18917 0.78499,-0.32761 1.88323,-0.61484 2.93978,-0.76886 0.93957,-0.13696 2.67011,-0.2323 3.54082,-0.19506 l 0.37418,0.016 -0.031,-0.0904 c -0.12324,-0.35885 -0.58683,-0.76184 -1.63433,-1.4207 -0.30042,-0.18895 -0.78092,-0.50968 -1.06778,-0.71274 -1.94151,-1.37426 -3.11425,-2.15493 -3.61279,-2.40494 -0.24277,-0.12175 -0.66054,-0.28809 -1.23946,-0.4935 -0.23381,-0.083 -0.59898,-0.22046 -0.81149,-0.30556 -0.21251,-0.0851 -0.60706,-0.22272 -0.87676,-0.30583 -0.26971,-0.0831 -0.66374,-0.205 -0.87562,-0.27084 -0.89782,-0.279 -1.49389,-0.53399 -1.80982,-0.77423 -0.12224,-0.093 -0.2428,-0.22441 -0.39551,-0.43127 -0.62086,-0.84097 -1.1913,-1.88736 -1.94712,-3.57168 -0.19672,-0.43839 -0.48634,-1.084 -0.64361,-1.43471 -0.15727,-0.3507 -0.56672,-1.22946 -0.9098996,-1.95279 -1.11516,-2.35048 -1.45191,-3.10838 -1.8239,-4.10485 -0.299,-0.80096 -0.65505,-1.54309 -1.1805,-2.46056 -1.17187,-2.046156 -2.41752,-3.778836 -4.0017,-5.566286 -0.47961,-0.54116 -1.81960996,-1.88884 -2.35232996,-2.36582 -2.94656004,-2.63826 -6.18609004,-4.62861 -9.14638004,-5.61948 -0.64301,-0.21523 -0.94718,-0.26009 -2.2249804,-0.32812 -0.7393,-0.0394 -1.25626,-0.0897 -1.49995,-0.14598 -0.0591,-0.0136 -0.28913,-0.0251 -0.51119,-0.0255 l -0.40374,-6.1e-4 -0.20395,-0.10553 c -0.2519,-0.13036 -0.41777,-0.25327 -0.80498,-0.59651 -0.47344,-0.41968 -0.55485,-0.48353 -0.8803,-0.69045 -0.84688,-0.53842 -1.65877,-0.94321 -3.07192,-1.53161 -1.03671,-0.43166 -1.41427,-0.53869 -1.90969,-0.54137 -0.29397,-0.002 -0.32918,0.004 -0.45167,0.0677 -0.0731,0.0382 -0.1787,0.0843 -0.23475,0.10244 -0.16822,0.0545 -0.2676,0.16493 -0.37726,0.41925 -0.17154,0.39782 -0.15424,0.70611 0.0714,1.27268 0.12916,0.32428 0.39847,0.80867 0.65261,1.17382 0.0949,0.13636 0.40592,0.54097 0.69113,0.89915 0.58397,0.73337 1.62584,2.17598 1.98614,2.75009 0.61132,0.97409 0.99678,1.93808 1.82002,4.55165 0.75105,2.38437 1.17144,3.33787 2.09077,4.74216 0.16539,0.25264 0.28194,0.38693 0.66969,0.77167 0.5091,0.505116 0.66557,0.710186 0.80018,1.048646 0.14709,0.36983 0.13793,0.68626 -0.0405,1.3996 -0.11452,0.45784 -0.24082,0.83597 -0.57452,1.72008 -0.14573,0.38609 -0.3112,0.86012 -0.36772,1.0534 -0.19393,0.6632 -0.37071,1.6436 -0.45716,2.53545 -0.0468,0.48302 -0.0473,2.49562 -6e-4,2.94911 0.13066,1.27081 0.32547,2.26021 0.61678,3.1325 0.14356,0.42988 0.51623,1.32797 0.72278,1.74182 0.3547,0.7107 0.74766,1.12266 1.27345,1.33504 0.14609,0.059 0.17548,0.0628 0.26213,0.0342 l 0.0976,-0.0322 0.0585,-0.52191 c 0.24956,-2.22627 0.35285,-2.93386 0.53273,-3.6493 0.23334,-0.92808 0.5164504,-1.58263 0.9371704,-2.16667 0.087,-0.12071 0.35354,-0.45796 0.59242,-0.74945 0.23888,-0.29148 0.47169,-0.58427 0.51735,-0.65065 0.0457,-0.0664 0.0993,-0.12067 0.11925,-0.12067 0.0457,0 0.16019,0.13488 0.22894,0.26965 0.0289,0.0567 0.0954,0.2554 0.14769,0.44148 0.15523,0.55243 1.04198,2.6224 1.60748,3.75239 1.51372,3.02475 3.56983,6.2489 5.0823,7.96946 0.50050004,0.56937 0.97463004,1.0376 1.28004004,1.26413 0.16229,0.12037 0.34117,0.27401 0.39751,0.3414 0.0563,0.0674 0.11783,0.12254 0.13666,0.12254 0.0188,0 0.0342,0.0296 0.0342,0.0658 0,0.0767 -0.0181,0.0726 -0.29668,-0.0679 -0.41345,-0.20846 -0.59471,-0.35805 -1.43027004,-1.1804 -0.37263,-0.36674 -0.78511,-0.74933 -0.91662,-0.85021 -0.86703,-0.66506 -1.57224,-1.27959 -2.36111,-2.05748 -1.18029,-1.16386 -2.09245,-2.29672 -2.43982,-3.03015 -0.34861,-0.73606 -1.35992,-2.73338 -1.37825,-2.72205 -0.0406,0.0251 -0.10541,0.26945 -0.13307,0.50181 -0.0158,0.13249 -0.0563,0.36044 -0.0901,0.50657 -0.089,0.38471 -0.16256,0.82842 -0.24,1.44799 -0.0374,0.29956 -0.0919,0.68812 -0.12103,0.86347 -0.20956,1.26147 -0.65068,1.89049 -1.5259704,2.17602 -0.86336,0.28163 -1.74652,-0.008 -2.57715,-0.84596 -1.14662,-1.15635 -2.0129,-2.95478 -2.45436,-5.09532 -0.27028,-1.31053 -0.36584,-2.37565 -0.34036,-3.7935 0.0302,-1.68287 0.22622,-2.95056 0.69785,-4.51414 0.0503,-0.16666 0.16366,-0.62948 0.25199,-1.02849 0.18122,-0.81869 0.28763,-1.1616 0.46241,-1.49016 0.11496,-0.21609 0.11934,-0.23221 0.0913,-0.33617 -0.0637,-0.23643 -0.15883,-0.3729 -0.47608,-0.68275 -0.36423,-0.35572 -0.61607,-0.69358 -1.00245,-1.344816 -0.61099,-1.02983 -1.0032,-1.8236 -1.42212,-2.87816 -0.19958,-0.50241 -0.30062,-0.779 -0.74252,-2.03249 -0.53196,-1.50896 -0.57162,-1.62937 -0.70892,-2.15206 -0.20779,-0.79108 -0.2794,-0.98076 -0.54161,-1.4347 -0.15799,-0.27351 -0.49338,-0.7711 -0.75795,-1.12453 -0.71264,-0.95197 -1.0964,-1.45597 -1.48033,-1.94414 -0.68777,-0.87453 -1.04712,-1.40692 -1.32921,-1.96932 -0.60727,-1.21069 -0.6695,-2.21459 -0.19857,-3.20323 0.4898,-1.02824 1.27777,-1.55824 2.46,-1.65459 1.37138,-0.11178 3.3916,0.52889 5.5261,1.7525 0.70267,0.4028 0.94856,0.57045 1.37134,0.93498 0.53348,0.45999 0.66868,0.56659 0.86939,0.68548 0.20117,0.11915 0.0461,0.10121 1.61043,0.18641 0.52606,0.0287 1.0401604,0.0574 1.1424504,0.0639 0.30593,0.0195 2.07728,0.44767 2.87176,0.69422 1.08882,0.33788 1.66403,0.62228 3.21244,1.58828 2.26393,1.4124 4.06703004,2.74293 5.76539,4.25436 0.58346,0.51924 1.8834,1.80799 2.39529,2.37468 1.58745,1.75737 2.95303,3.60097 4.30339,5.80977 0.52814,0.863876 0.70652,1.238696 1.3635096,2.864966 0.23122,0.57234 0.45268,1.11235 0.49213,1.20002 0.0394,0.0877 0.21305,0.48222 0.38578,0.87677 0.78783,1.79954 1.51192,3.34267 2.25028,4.79563 0.27104,0.53336 0.65674,1.32387 0.85712,1.75668 0.38584,0.83345 0.61348,1.25632 0.87242,1.62066 0.28651,0.40314 0.42444,0.49615 1.05846,0.71372 0.17353,0.0596 0.51279,0.20253 0.7539,0.31772 0.24111,0.11519 0.82695,0.37931 1.30186,0.58693 1.39173,0.60841 1.74989,0.79767 2.82955,1.49525 1.42009,0.91753 2.9687,2.06861 4.52721,3.36509 0.99906,0.83108 1.12615,0.96369 1.93597,2.02011 0.16242,0.21188 0.37375,0.47086 0.46962,0.5755 l 0.1743,0.19027 v 0.17006 0.17007 l -0.3786,0.11516 c -1.57802,0.48001 -1.70486,0.5056 -3.61997,0.73041 -0.64798,0.0761 -1.09502,0.16206 -1.58767,0.30543 -0.81623,0.23755 -1.44283,0.39043 -1.85296,0.45209 -0.1096,0.0165 -0.22594,0.0356 -0.25854,0.0424 l -0.0593,0.0125 0.067,0.15239 c 0.3083,0.70102 1.05121,1.30795 2.93422,2.39716 0.81002,0.46855 1.09987,0.65343 1.51441,0.96594 1.20059,0.9051 2.31153,1.98504 3.14733,3.05947 0.16591,0.21329 0.42917,0.49331 0.79527,0.84592 0.6025,0.5803 0.58012,0.54881 0.86815,1.22136 0.0614,0.14334 0.13988,0.30228 0.17445,0.35321 0.0681,0.10037 0.0828,0.19716 0.0296,0.19546 -0.0183,-5.8e-4 -0.0794,-0.0241 -0.13591,-0.0523 z m -40.5605,-40.372386 c -0.44802,-0.94799 -0.39564,-0.8673 -1.05106,-1.61903 -0.21052,-0.24145 -0.48995,-0.62802 -0.48995,-0.67781 0,-0.011 -0.0239,-0.0263 -0.0531,-0.034 -0.0292,-0.008 -0.0531,-0.032 -0.0531,-0.0541 0,-0.0704 0.61409,-0.18246 1.18948,-0.21702 l 0.29945,-0.018 0.0902,0.0792 c 0.0496,0.0435 0.20776,0.16299 0.35149,0.26543 0.42969,0.30628 0.51242,0.40201 0.7393904,0.85555 0.0695,0.13882 0.15046,0.28654 0.17997,0.32827 0.0487,0.0689 0.0522,0.10293 0.0378,0.37196 -0.0199,0.37106 -0.0707,0.57408 -0.22366,0.8934 -0.1026604,0.21429 -0.1541604,0.28471 -0.3448604,0.47159 -0.12329,0.12082 -0.23293,0.21968 -0.24363,0.21968 -0.0107,0 -0.20344,-0.38932 -0.42832,-0.86514 z"
       id="path3" /></g></svg>
