<?xml version="1.0" encoding="UTF-8" standalone="no"?>
<!-- Created with Inkscape (http://www.inkscape.org/) -->

<svg
   width="52.916668mm"
   height="41.454536mm"
   viewBox="0 0 52.916668 41.454539"
   version="1.1"
   id="svg1"
   xml:space="preserve"
   inkscape:version="1.3.2 (091e20ef0f, 2023-11-25)"
   sodipodi:docname="tailwind_and_bootstrap.svg"
   xmlns:inkscape="http://www.inkscape.org/namespaces/inkscape"
   xmlns:sodipodi="http://sodipodi.sourceforge.net/DTD/sodipodi-0.dtd"
   xmlns="http://www.w3.org/2000/svg"
   xmlns:svg="http://www.w3.org/2000/svg"><sodipodi:namedview
     id="namedview1"
     pagecolor="#505050"
     bordercolor="#eeeeee"
     borderopacity="1"
     inkscape:showpageshadow="0"
     inkscape:pageopacity="0"
     inkscape:pagecheckerboard="0"
     inkscape:deskcolor="#505050"
     inkscape:document-units="mm"
     inkscape:zoom="1.3682773"
     inkscape:cx="266.39337"
     inkscape:cy="216.33042"
     inkscape:window-width="1920"
     inkscape:window-height="1037"
     inkscape:window-x="0"
     inkscape:window-y="0"
     inkscape:window-maximized="1"
     inkscape:current-layer="layer1" /><defs
     id="defs1" /><g
     inkscape:label="Layer 1"
     inkscape:groupmode="layer"
     id="layer1"
     transform="translate(394.35506,161.8067)"><g
       id="g1"
       transform="matrix(1.0201383,0,0,1.0201383,7.9416255,3.2585057)"><path
         style="fill:#1e877d;fill-opacity:0.694118;stroke-width:0.678776"
         d="m -377.1392,-140.28209 c -2.21086,-0.13092 -3.97382,-0.77635 -5.58429,-2.04448 -0.55114,-0.43399 -0.87549,-0.73538 -1.98853,-1.84785 -0.93616,-0.93565 -1.19856,-1.17695 -1.64961,-1.5168 -0.82717,-0.62328 -1.61008,-0.91955 -2.68205,-1.01495 -0.25841,-0.023 -0.75186,-0.0165 -0.99626,0.0129 -0.86897,0.10504 -1.63888,0.40643 -2.41851,0.94694 -0.60677,0.42067 -1.25117,1.05439 -1.80127,1.77143 -0.0454,0.0592 -0.0844,0.11001 -0.0865,0.11275 -0.0176,0.0225 -0.009,-0.0305 0.027,-0.16736 0.45627,-1.73302 1.14308,-3.12989 2.08149,-4.23337 0.1735,-0.204 0.6438,-0.67334 0.84003,-0.8383 1.22453,-1.02933 2.67461,-1.62959 4.4767,-1.85307 0.91558,-0.1135 2.05545,-0.11836 2.98124,-0.0125 1.91791,0.2194 3.50879,0.87966 4.98669,2.0696 0.49721,0.40033 0.7375,0.62506 1.82586,1.7075 0.84435,0.83976 1.08685,1.07085 1.37754,1.31279 0.76302,0.63504 1.42011,0.97798 2.20832,1.15252 1.04039,0.2304 2.03601,0.17376 2.95412,-0.16803 0.63236,-0.23543 1.2098,-0.58495 1.80688,-1.0937 0.19189,-0.16351 0.64999,-0.61962 0.83009,-0.82651 0.13557,-0.15573 0.36812,-0.44091 0.46736,-0.57314 0.029,-0.0386 0.0544,-0.0652 0.0565,-0.0589 0.002,0.006 -0.0182,0.0945 -0.0451,0.196 -0.77916,2.94259 -2.24932,4.94998 -4.41763,6.03198 -1.03539,0.51665 -2.13959,0.80378 -3.53199,0.91838 -0.27323,0.0225 -1.42721,0.0332 -1.71811,0.0161 z m 9.11134,-10.76409 c -2.14117,-0.0965 -3.91226,-0.7 -5.47726,-1.86656 -0.63972,-0.47686 -0.93858,-0.74808 -2.13746,-1.93983 -0.88223,-0.87698 -1.03306,-1.02228 -1.29906,-1.25144 -0.80953,-0.69735 -1.49511,-1.06626 -2.32274,-1.24989 -1.5896,-0.35268 -3.04421,-0.0368 -4.37008,0.94885 -0.57429,0.42694 -1.20775,1.06952 -1.68859,1.71292 -0.0289,0.0386 -0.0543,0.0652 -0.0564,0.0589 -0.009,-0.0265 0.15438,-0.6052 0.27455,-0.97326 0.82462,-2.52582 2.21477,-4.26998 4.18818,-5.25471 1.03536,-0.51666 2.14514,-0.80516 3.53199,-0.9182 0.31878,-0.026 1.28994,-0.0365 1.64915,-0.0178 2.15042,0.11163 3.88538,0.71426 5.45673,1.89553 0.62383,0.46897 0.99044,0.80383 2.15753,1.97063 0.70503,0.70487 0.98486,0.9738 1.25472,1.20587 0.41955,0.3608 0.86955,0.6698 1.26285,0.86717 0.92932,0.46637 2.1981,0.624 3.2629,0.4054 0.79016,-0.16222 1.55611,-0.52772 2.26971,-1.0831 0.52222,-0.40642 1.12616,-1.03206 1.56758,-1.62388 0.0231,-0.0309 0.046,-0.0564 0.0512,-0.0565 0.0112,-4.5e-4 0.01,0.005 -0.0707,0.30116 -0.42637,1.56712 -1.0556,2.87313 -1.87656,3.89495 -0.28241,0.35148 -0.73107,0.81264 -1.04323,1.0723 -1.32487,1.10198 -2.91409,1.7059 -4.92682,1.87228 -0.48865,0.0403 -1.15215,0.0521 -1.65826,0.0294 z"
         id="path7" /><path
         style="fill:#1e877d;fill-opacity:0.694118;stroke-width:0.45498"
         d="m -363.72478,-121.21379 c -1.23163,-0.23968 -2.31782,-1.03633 -2.86824,-2.10366 -0.19443,-0.377 -0.33338,-0.77892 -0.38973,-1.12738 -0.033,-0.20395 -0.0414,-2.4441 -0.0329,-8.68799 l 0.0112,-8.41317 0.10678,-0.33209 c 0.22882,-0.71172 0.54069,-1.22071 1.05764,-1.72615 0.51467,-0.50321 1.07671,-0.82603 1.82702,-1.04932 l 0.34516,-0.10279 8.76335,-0.01 c 6.15063,-0.007 8.83586,0.001 9.00655,0.0294 0.33817,0.0555 0.81997,0.20639 1.13294,0.35491 1.18425,0.562 2.04961,1.67788 2.24669,2.89708 0.0322,0.19967 0.0408,2.49963 0.0322,8.68478 l -0.0112,8.41316 -0.0854,0.28062 c -0.43624,1.4341 -1.46897,2.42795 -2.9587,2.84733 l -0.29252,0.0823 -8.82087,0.005 c -7.15569,0.005 -8.86795,-0.004 -9.07017,-0.0424 z m 18.12113,-0.30656 c 0.40655,-0.11238 1.01417,-0.39979 1.32313,-0.6259 0.68905,-0.5043 1.19645,-1.22964 1.4259,-2.03834 l 0.089,-0.31365 v -8.46853 -8.46853 l -0.088,-0.31364 c -0.11164,-0.39782 -0.40573,-0.98165 -0.65071,-1.29149 -0.52411,-0.66296 -1.278,-1.15116 -2.11851,-1.37192 l -0.326,-0.0856 h -8.80169 -8.8017 l -0.32599,0.0856 c -1.34989,0.35455 -2.39969,1.36462 -2.7682,2.66341 l -0.089,0.31364 v 8.46853 8.46853 l 0.0892,0.31365 c 0.4083,1.43459 1.60794,2.4782 3.15142,2.74155 0.0528,0.009 4.03077,0.0143 8.84006,0.0124 l 8.74417,-0.005 z m -14.78454,-11.22646 v -6.90173 l 3.99815,0.0133 c 3.87962,0.0129 4.00839,0.0155 4.34333,0.0896 1.61798,0.35792 2.53747,1.14296 2.81913,2.40694 0.36684,1.64631 -0.25857,3.04746 -1.66334,3.72647 l -0.2836,0.13708 0.25423,0.0635 c 0.13983,0.035 0.43004,0.14669 0.6449,0.24838 0.8267,0.39116 1.37569,1.0764 1.65263,2.06275 0.0904,0.32169 0.0987,0.41435 0.10143,1.12544 0.002,0.73482 -0.002,0.79342 -0.10106,1.13272 -0.0572,0.19681 -0.17175,0.48744 -0.25454,0.64589 -0.63276,1.21086 -2.05312,1.95163 -4.05187,2.11327 -0.26554,0.0215 -1.94065,0.0373 -3.9598,0.0376 l -3.49959,3.6e-4 z m 7.80068,4.80606 c 0.99955,-0.26798 1.55578,-1.00948 1.55578,-2.07402 0,-1.04289 -0.51921,-1.7344 -1.51488,-2.01755 -0.20634,-0.0586 -0.47631,-0.0662 -2.7504,-0.0769 l -2.52163,-0.0112 v 2.14389 2.1439 l 2.4641,-0.0131 c 2.39999,-0.0128 2.47196,-0.0153 2.76703,-0.0943 z m -0.61793,-6.00286 c 0.38127,-0.0778 0.73688,-0.2604 1.00762,-0.51759 0.38144,-0.36238 0.51426,-0.71486 0.51499,-1.36677 6.4e-4,-1.03352 -0.37486,-1.53516 -1.31285,-1.75152 -0.29688,-0.0686 -0.45721,-0.0731 -2.5698,-0.0733 l -2.25316,-2.6e-4 v 1.8819 1.88189 l 2.17646,-4.5e-4 c 1.74479,-4.5e-4 2.22807,-0.0112 2.43674,-0.0538 z"
         id="path8" /></g></g></svg>
