<?xml version="1.0" encoding="UTF-8" standalone="no"?>
<!-- Created with Inkscape (http://www.inkscape.org/) -->

<svg
   width="52.900654mm"
   height="31.723534mm"
   viewBox="0 0 52.900654 31.723535"
   version="1.1"
   id="svg1"
   xml:space="preserve"
   inkscape:version="1.3.2 (091e20ef0f, 2023-11-25)"
   sodipodi:docname="tailwind.svg"
   xmlns:inkscape="http://www.inkscape.org/namespaces/inkscape"
   xmlns:sodipodi="http://sodipodi.sourceforge.net/DTD/sodipodi-0.dtd"
   xmlns="http://www.w3.org/2000/svg"
   xmlns:svg="http://www.w3.org/2000/svg"><sodipodi:namedview
     id="namedview1"
     pagecolor="#505050"
     bordercolor="#eeeeee"
     borderopacity="1"
     inkscape:showpageshadow="0"
     inkscape:pageopacity="0"
     inkscape:pagecheckerboard="0"
     inkscape:deskcolor="#505050"
     inkscape:document-units="mm"
     inkscape:zoom="1.0595326"
     inkscape:cx="258.13269"
     inkscape:cy="187.81867"
     inkscape:window-width="1920"
     inkscape:window-height="1037"
     inkscape:window-x="0"
     inkscape:window-y="0"
     inkscape:window-maximized="1"
     inkscape:current-layer="layer1" /><defs
     id="defs1" /><g
     inkscape:label="Layer 1"
     inkscape:groupmode="layer"
     id="layer1"
     transform="translate(398.22902,126.84242)"><path
       style="fill:#1e877d;fill-opacity:0.694118"
       d="m -372.86588,-95.131461 c -3.25714,-0.192877 -5.8544,-1.143773 -8.227,-3.012021 -0.81197,-0.639374 -1.28981,-1.083402 -2.92959,-2.722328 -1.37918,-1.37845 -1.76578,-1.73393 -2.43027,-2.23462 -1.21863,-0.91824 -2.37204,-1.35472 -3.95131,-1.49527 -0.3807,-0.0339 -1.10767,-0.0244 -1.46773,0.0191 -1.2802,0.15467 -2.41447,0.59877 -3.56305,1.39506 -0.89393,0.61975 -1.84327,1.55336 -2.65371,2.60974 -0.067,0.0873 -0.12436,0.16206 -0.12751,0.1661 -0.0259,0.0332 -0.0132,-0.0449 0.0398,-0.24655 0.67218,-2.55316 1.68403,-4.61108 3.06654,-6.23678 0.25559,-0.30054 0.94847,-0.99199 1.23757,-1.235 1.80401,-1.51647 3.94033,-2.40078 6.59525,-2.73004 1.34887,-0.16729 3.02818,-0.17427 4.39209,-0.0182 2.82553,0.32322 5.1693,1.29594 7.34659,3.04902 0.7325,0.58978 1.08652,0.92085 2.68993,2.51555 1.24393,1.23717 1.60118,1.57762 2.02945,1.93406 1.12412,0.93557 2.09217,1.4408 3.2534,1.69795 1.53274,0.33942 2.99952,0.25599 4.35212,-0.24757 0.93161,-0.34683 1.78232,-0.86176 2.66197,-1.61128 0.2827,-0.24088 0.95759,-0.91285 1.22292,-1.21764 0.19974,-0.22943 0.54234,-0.64957 0.68854,-0.84436 0.0427,-0.0569 0.0802,-0.096 0.0833,-0.0868 0.003,0.009 -0.0268,0.13915 -0.0664,0.28874 -1.14789,4.33515 -3.31379,7.292532 -6.50824,8.886573 -1.52536,0.761156 -3.15212,1.184144 -5.20347,1.352997 -0.40253,0.03313 -2.10262,0.049 -2.53119,0.02362 z m 13.4232,-15.858129 c -3.15447,-0.14209 -5.7637,-1.03127 -8.06932,-2.74988 -0.94247,-0.70252 -1.38276,-1.1021 -3.14901,-2.85785 -1.29972,-1.29199 -1.52193,-1.50606 -1.91382,-1.84365 -1.19263,-1.02736 -2.20266,-1.57087 -3.42195,-1.84139 -2.34186,-0.51959 -4.48487,-0.0543 -6.43819,1.39787 -0.84607,0.62899 -1.77929,1.57567 -2.48769,2.52354 -0.0426,0.0569 -0.0799,0.096 -0.083,0.0868 -0.013,-0.0391 0.22744,-0.89161 0.40447,-1.43384 1.21487,-3.72115 3.2629,-6.29072 6.1702,-7.74147 1.52534,-0.76115 3.16031,-1.18619 5.20347,-1.35272 0.46965,-0.0383 1.90039,-0.0538 2.4296,-0.0263 3.16809,0.16438 5.72411,1.05228 8.03908,2.79257 0.91906,0.69091 1.45917,1.18424 3.17858,2.90323 1.03868,1.03843 1.45092,1.43462 1.8485,1.77653 0.61809,0.53154 1.28105,0.98678 1.86047,1.27755 1.36913,0.68706 3.23835,0.9193 4.80703,0.59725 1.16412,-0.23899 2.29253,-0.77746 3.34385,-1.59567 0.76936,-0.59876 1.65911,-1.52047 2.30942,-2.39236 0.034,-0.0455 0.0678,-0.083 0.0753,-0.0833 0.0164,-6.6e-4 0.0143,0.008 -0.1041,0.44369 -0.62813,2.30873 -1.55514,4.2328 -2.76463,5.7382 -0.41604,0.51781 -1.07702,1.19721 -1.53692,1.57974 -1.95185,1.62348 -4.29315,2.51322 -7.2584,2.75832 -0.71988,0.0595 -1.69738,0.0768 -2.44299,0.0432 z"
       id="path7" /></g></svg>
